<svg version="1.1" id="Layer_1" xmlns="http://www.w3.org/2000/svg" xmlns:xlink="http://www.w3.org/1999/xlink" x="0px" y="0px"
	 width="100%" viewBox="0 0 225 225" enable-background="new 0 0 225 225" xml:space="preserve">
<path fill="#FFFFFF" opacity="1.000000" stroke="none" 
	d="
M226.000000,109.000000 
	C226.000000,148.333328 226.000000,187.166672 226.000000,226.000000 
	C151.000000,226.000000 76.000000,226.000000 1.000000,226.000000 
	C1.000000,151.000000 1.000000,76.000000 1.000000,1.000000 
	C76.000000,1.000000 151.000000,1.000000 226.000000,1.000000 
	C226.000000,36.833332 226.000000,72.666664 226.000000,109.000000 
M178.742462,146.998520 
	C179.167297,146.005051 179.592117,145.011581 180.277847,143.506592 
	C180.265442,143.125519 180.253036,142.744461 180.881470,141.878906 
	C181.210281,139.598663 181.811584,137.319885 181.823883,135.037933 
	C181.907043,119.604767 181.865646,104.170937 181.864548,88.737312 
	C181.863449,73.303696 181.870270,57.870060 181.851532,42.436462 
	C181.849091,40.434311 182.631989,37.784531 178.269867,38.001835 
	C174.503403,36.929699 170.741928,35.839668 166.968658,34.792049 
	C164.656677,34.150154 162.326645,33.573299 159.488907,32.416325 
	C158.519974,32.236038 157.461746,32.246838 156.597275,31.842951 
	C152.483902,29.921120 148.481522,27.749842 144.310120,25.971010 
	C142.971252,25.400064 140.877106,25.152746 139.754349,25.816301 
	C137.222610,27.312569 135.499817,29.305195 131.787155,27.745018 
	C129.014893,26.580025 125.360031,27.515289 121.344307,27.515289 
	C121.360733,27.408590 121.174278,28.620058 120.142113,29.966833 
	C118.432045,29.923296 116.721977,29.879761 114.490196,29.355104 
	C111.216003,26.954611 108.027199,23.033401 104.031609,30.045668 
	C103.098511,28.184671 102.498840,26.988665 101.582123,25.160337 
	C100.822487,27.128538 100.513222,27.929842 100.589050,27.733368 
	C92.730545,27.419167 85.451004,23.586239 79.753960,27.370171 
	C75.768143,26.849352 73.220802,26.516495 69.721725,26.059277 
	C71.703590,27.994892 72.735001,29.002237 73.766411,30.009586 
	C72.232460,30.671701 70.755508,31.664333 69.154976,31.940344 
	C60.990906,33.348225 52.794907,34.570923 44.998932,35.797253 
	C44.998932,39.198395 44.998932,41.105072 44.219986,43.006847 
	C40.185513,42.928253 40.287399,45.555611 40.716801,48.379948 
	C41.133289,51.119354 41.930344,53.853893 41.942802,56.593376 
	C42.043839,78.817795 41.984158,101.042892 42.022297,123.267708 
	C42.026321,125.610924 41.193317,128.557419 45.002953,129.853790 
	C45.647617,132.571182 46.292282,135.288589 47.203621,138.395966 
	C47.300297,138.720535 47.504490,138.949005 47.803246,139.905579 
	C48.316555,142.266937 48.829861,144.628311 49.265049,147.598846 
	C49.810547,148.444183 50.356041,149.289520 50.970486,150.050827 
	C50.970486,150.050827 50.866325,150.081909 50.907791,150.681427 
	C50.955891,151.077988 51.003990,151.474564 50.945469,152.611130 
	C49.719105,157.140198 51.448055,159.524658 57.461845,161.191986 
	C57.710526,161.595139 57.959209,161.998276 58.055023,163.220505 
	C57.733860,164.476242 57.412693,165.731979 57.196621,166.576813 
	C59.959862,169.726547 62.832718,172.318405 64.841919,175.462219 
	C67.422318,179.499786 68.771729,177.503250 71.059830,175.338745 
	C72.052238,176.078171 73.044655,176.817596 73.966095,178.309097 
	C74.845039,179.559799 75.473022,181.165878 76.648849,181.996155 
	C80.560257,184.758194 86.037170,185.974945 85.747131,191.526199 
	C88.423096,192.398346 90.604546,193.084244 92.768379,193.821808 
	C94.831367,194.524994 96.875999,195.282028 99.601654,196.158188 
	C99.766609,196.317459 99.931572,196.476746 99.368645,196.873764 
	C99.553497,198.013321 99.738342,199.152863 99.923195,200.292419 
	C100.994301,199.709763 102.065414,199.127121 103.609360,198.764221 
	C103.739571,198.879349 103.869774,198.994461 104.256126,199.523895 
	C104.485985,199.782837 104.774017,199.915573 105.074013,199.944244 
	C105.074013,199.944244 105.097252,199.897644 105.113731,200.638367 
	C106.957985,202.905045 108.802238,205.171738 110.934975,207.792969 
	C112.079025,207.288300 113.542412,206.642746 115.031891,206.811996 
	C117.355209,211.091827 120.982811,208.980591 123.923874,208.233719 
	C127.467468,207.333832 130.677322,205.120102 134.220840,204.219376 
	C140.623199,202.591919 142.204910,200.077576 140.102463,193.487717 
	C138.068665,193.992859 136.034851,194.498001 133.996429,194.307343 
	C133.994141,193.843307 133.991867,193.379272 134.574585,192.593338 
	C135.671097,191.702972 136.767624,190.812622 138.497879,190.230118 
	C139.872253,190.924988 141.246643,191.619843 142.398712,192.202316 
	C143.349899,186.028625 148.312897,184.057388 152.600525,180.700150 
	C156.652832,175.454330 161.409882,171.689285 169.158798,172.810455 
	C168.545349,171.364410 167.606537,170.636581 166.660294,169.918549 
	C165.765198,169.239334 164.862289,168.570419 164.099167,167.444168 
	C164.281525,167.157440 164.541504,166.994781 165.595078,167.258804 
	C167.449081,167.541550 169.303101,167.824295 171.255020,168.121964 
	C170.791748,165.697159 170.445633,163.885605 170.703522,161.730942 
	C174.024002,160.668488 176.938187,159.349472 175.110565,154.230606 
	C175.141144,153.514130 175.171738,152.797638 175.735245,151.909790 
	C176.145264,151.530563 176.555298,151.151337 177.626602,150.554825 
	C177.787598,149.698013 177.948608,148.841217 178.107224,147.522842 
	C178.107224,147.522842 178.217361,147.074600 178.742462,146.998520 
M135.373245,25.525640 
	C135.160416,25.471142 134.947586,25.416643 134.734756,25.362143 
	C134.871460,25.496105 135.008179,25.630070 135.373245,25.525640 
M93.413010,197.482895 
	C93.413010,197.482895 93.523415,197.417038 93.413010,197.482895 
M175.587387,168.516525 
	C175.587387,168.516525 175.475906,168.582947 175.587387,168.516525 
z"/>
<path fill="#F5F0F8" opacity="1.000000" stroke="none" 
	d="
M44.998932,43.011749 
	C44.998932,41.105072 44.998932,39.198395 44.998932,35.797253 
	C52.794907,34.570923 60.990906,33.348225 69.154976,31.940344 
	C70.755508,31.664333 72.232460,30.671701 73.766411,30.009586 
	C72.735001,29.002237 71.703590,27.994892 69.721725,26.059277 
	C73.220802,26.516495 75.768143,26.849352 79.753960,27.370171 
	C85.451004,23.586239 92.730545,27.419167 100.589050,27.733368 
	C100.513222,27.929842 100.822487,27.128538 101.582123,25.160337 
	C102.498840,26.988665 103.098511,28.184671 104.031609,30.045668 
	C108.027199,23.033401 111.216003,26.954611 114.295990,29.672855 
	C109.688622,30.230383 105.275452,30.470158 100.455139,30.572018 
	C90.356255,31.649843 80.664513,32.865585 70.650764,34.028130 
	C70.004601,34.194202 69.680435,34.413475 69.245071,34.518166 
	C68.948738,34.317066 68.759552,34.240528 68.220978,33.992313 
	C63.257137,34.875301 58.661274,36.053856 54.014622,36.976688 
	C47.755913,38.219685 47.047668,38.974152 47.040981,45.379314 
	C47.008751,76.254868 46.972054,107.130424 46.936943,138.005981 
	C46.292282,135.288589 45.647617,132.571182 45.002563,128.956360 
	C45.001095,99.709862 45.000011,71.360802 44.998932,43.011749 
z"/>
<path fill="#472A8D" opacity="1.000000" stroke="none" 
	d="
M49.343170,146.989670 
	C48.829861,144.628311 48.316555,142.266937 48.135040,139.224945 
	C48.646500,135.028259 48.826160,131.512222 49.355476,128.036728 
	C51.206955,129.048462 52.708782,130.019653 54.451813,131.262604 
	C55.284649,132.855728 56.236641,134.131943 56.408806,135.505844 
	C57.443371,143.761688 60.392551,150.935562 66.624275,156.778900 
	C68.926491,158.937637 70.284149,162.103699 72.050934,165.174500 
	C72.020210,166.024872 72.011169,166.511108 71.845055,167.243744 
	C71.114601,168.003601 70.541222,168.517075 69.599762,169.019943 
	C68.350105,168.647156 67.177818,168.530045 66.633072,167.883881 
	C62.367592,162.824310 58.259476,157.632263 54.008617,152.560013 
	C53.169823,151.559128 51.924282,150.899124 50.866325,150.081909 
	C50.866325,150.081909 50.970486,150.050827 50.965782,149.751648 
	C50.421776,148.631531 49.882473,147.810593 49.343170,146.989670 
z"/>
<path fill="#FCFEF2" opacity="1.000000" stroke="none" 
	d="
M44.609459,43.009300 
	C45.000011,71.360802 45.001095,99.709862 45.001774,128.527008 
	C41.193317,128.557419 42.026321,125.610924 42.022297,123.267708 
	C41.984158,101.042892 42.043839,78.817795 41.942802,56.593376 
	C41.930344,53.853893 41.133289,51.119354 40.716801,48.379948 
	C40.287399,45.555611 40.185513,42.928253 44.609459,43.009300 
z"/>
<path fill="#4B377E" opacity="1.000000" stroke="none" 
	d="
M49.005821,127.996193 
	C48.826160,131.512222 48.646500,135.028259 48.141518,138.812836 
	C47.504490,138.949005 47.300297,138.720535 47.070282,138.200974 
	C46.972054,107.130424 47.008751,76.254868 47.040981,45.379314 
	C47.047668,38.974152 47.755913,38.219685 54.014622,36.976688 
	C58.661274,36.053856 63.257137,34.875301 68.013969,34.416107 
	C67.637970,35.615589 67.207840,36.606544 66.595055,36.736557 
	C63.557358,37.381054 60.485943,37.930096 57.399651,38.269291 
	C50.120728,39.069267 49.003094,40.211746 49.002350,47.437405 
	C48.999584,74.290337 49.004063,101.143265 49.005821,127.996193 
z"/>
<path fill="#5F4C86" opacity="1.000000" stroke="none" 
	d="
M178.957993,38.325146 
	C182.631989,37.784531 181.849091,40.434311 181.851532,42.436462 
	C181.870270,57.870060 181.863449,73.303696 181.864548,88.737312 
	C181.865646,104.170937 181.907043,119.604767 181.823883,135.037933 
	C181.811584,137.319885 181.210281,139.598663 180.509033,141.672699 
	C180.087311,139.962646 180.038040,138.458786 180.008438,136.491684 
	C180.018097,107.032867 180.008087,78.037300 180.018250,48.694767 
	C180.025146,47.884659 180.011902,47.421520 180.015564,46.535744 
	C180.027954,44.420803 180.023453,42.728504 180.013763,40.741333 
	C179.675308,40.012646 179.342010,39.578835 178.976349,39.103397 
	C178.943970,39.061775 178.863403,38.993690 178.874451,38.824768 
	C178.885498,38.655849 178.957993,38.325146 178.957993,38.325146 
z"/>
<path fill="#FDFDF6" opacity="1.000000" stroke="none" 
	d="
M134.001053,195.003143 
	C136.034851,194.498001 138.068665,193.992859 140.102325,193.487152 
	C142.204910,200.077576 140.623199,202.591919 134.220840,204.219376 
	C130.677322,205.120102 127.467468,207.333832 123.923874,208.233719 
	C120.982811,208.980591 117.355209,211.091827 115.402962,206.403122 
	C119.515266,203.995529 123.256508,201.996826 127.416550,199.998383 
	C130.693359,199.894043 134.234772,200.837967 133.996826,195.737976 
	C133.997116,195.493027 134.001053,195.003159 134.001053,195.003143 
z"/>
<path fill="#F5F0F8" opacity="1.000000" stroke="none" 
	d="
M120.987823,29.831524 
	C121.174278,28.620058 121.360733,27.408590 121.344307,27.515289 
	C125.360031,27.515289 129.014893,26.580025 131.787155,27.745018 
	C135.499817,29.305195 137.222610,27.312569 139.754349,25.816301 
	C140.877106,25.152746 142.971252,25.400064 144.310120,25.971010 
	C148.481522,27.749842 152.483902,29.921120 156.597275,31.842951 
	C157.461746,32.246838 158.519974,32.236038 159.497284,32.746033 
	C159.340546,33.117077 159.175415,33.158405 158.636612,33.089447 
	C156.836380,33.194176 155.157028,34.008003 154.023346,33.529362 
	C145.055206,29.742971 135.737595,32.196007 126.504654,31.395596 
	C125.837967,30.931061 125.265427,30.780628 124.472061,30.436436 
	C123.866852,30.243088 123.482452,30.243502 122.750656,30.152065 
	C121.931442,29.983984 121.459633,29.907753 120.987823,29.831524 
z"/>
<path fill="#F0E8F7" opacity="1.000000" stroke="none" 
	d="
M98.928703,196.015396 
	C96.875999,195.282028 94.831367,194.524994 92.768379,193.821808 
	C90.604546,193.084244 88.423096,192.398346 85.747131,191.526199 
	C86.037170,185.974945 80.560257,184.758194 76.648849,181.996155 
	C75.473022,181.165878 74.845039,179.559799 73.989044,177.803711 
	C74.011993,177.298340 74.016998,177.039032 74.323578,177.185577 
	C76.087234,178.215439 77.544304,179.098755 79.304688,180.142029 
	C81.380989,181.212280 83.153961,182.122589 84.970963,183.381683 
	C85.849266,184.735260 86.683533,185.740067 87.633560,186.781433 
	C87.749321,186.817978 87.992058,186.822754 88.072479,187.175568 
	C89.770615,188.026382 91.388329,188.524368 93.276794,189.197906 
	C94.637398,190.604340 95.727249,191.835205 96.874557,193.383118 
	C97.597580,194.471939 98.263138,195.243668 98.928703,196.015396 
z"/>
<path fill="#493479" opacity="1.000000" stroke="none" 
	d="
M50.887058,150.381668 
	C51.924282,150.899124 53.169823,151.559128 54.008617,152.560013 
	C58.259476,157.632263 62.367592,162.824310 66.633072,167.883881 
	C67.177818,168.530045 68.350105,168.647156 69.642105,169.360229 
	C71.375648,171.807724 72.698769,173.904312 74.016953,176.260437 
	C74.013680,176.692963 74.015343,176.865997 74.016998,177.039032 
	C74.016998,177.039032 74.011993,177.298340 74.024536,177.427673 
	C73.044655,176.817596 72.052238,176.078171 70.599174,174.875916 
	C66.161644,170.409210 62.184765,166.405319 58.207890,162.401428 
	C57.959209,161.998276 57.710526,161.595139 57.168190,160.758087 
	C54.933723,157.506516 52.992905,154.688812 51.052094,151.871124 
	C51.003990,151.474564 50.955891,151.077988 50.887058,150.381668 
z"/>
<path fill="#F0E8F7" opacity="1.000000" stroke="none" 
	d="
M126.997742,199.998123 
	C123.256508,201.996826 119.515266,203.995529 115.389915,205.995728 
	C113.542412,206.642746 112.079025,207.288300 110.934975,207.792969 
	C108.802238,205.171738 106.957985,202.905045 105.466080,200.306000 
	C107.658226,200.978073 109.503136,201.973297 111.336693,202.989014 
	C114.506775,204.745102 117.210739,204.601135 119.090775,201.106628 
	C119.063591,201.093536 119.078690,201.151459 119.433029,201.106110 
	C121.887642,199.789215 123.987923,198.517639 126.391472,197.143707 
	C127.806641,196.452164 128.918549,195.862976 130.019241,195.621338 
	C129.004593,197.311966 128.001175,198.655045 126.997742,199.998123 
z"/>
<path fill="#F7F1FB" opacity="1.000000" stroke="none" 
	d="
M163.962799,167.896957 
	C164.862289,168.570419 165.765198,169.239334 166.660294,169.918549 
	C167.606537,170.636581 168.545349,171.364410 169.158798,172.810455 
	C161.409882,171.689285 156.652832,175.454330 152.064087,180.712723 
	C151.356293,180.235794 151.184937,179.746277 151.288879,179.031967 
	C152.377533,177.495590 153.190887,176.184021 154.323364,174.915436 
	C155.453766,173.987823 156.265060,173.017258 157.054794,172.037201 
	C157.033234,172.027740 157.053589,172.071320 157.344604,171.960464 
	C158.446167,171.288757 159.256683,170.727921 160.397736,170.117523 
	C161.806442,169.344315 162.884613,168.620636 163.962799,167.896957 
z"/>
<path fill="#FAF5FA" opacity="1.000000" stroke="none" 
	d="
M58.131454,162.810974 
	C62.184765,166.405319 66.161644,170.409210 70.264038,174.680893 
	C68.771729,177.503250 67.422318,179.499786 64.841919,175.462219 
	C62.832718,172.318405 59.959862,169.726547 57.196621,166.576813 
	C57.412693,165.731979 57.733860,164.476242 58.131454,162.810974 
z"/>
<path fill="#462C87" opacity="1.000000" stroke="none" 
	d="
M159.010300,33.199734 
	C159.175415,33.158405 159.340546,33.117077 159.755203,33.021492 
	C162.326645,33.573299 164.656677,34.150154 166.968658,34.792049 
	C170.741928,35.839668 174.503403,36.929699 178.613922,38.163490 
	C178.957993,38.325146 178.885498,38.655849 178.435226,38.828812 
	C176.007874,38.999817 173.985306,39.267326 172.062653,38.942844 
	C167.260788,38.132431 161.142303,40.118080 159.010300,33.199734 
z"/>
<path fill="#412C71" opacity="1.000000" stroke="none" 
	d="
M119.117958,201.119736 
	C117.210739,204.601135 114.506775,204.745102 111.336693,202.989014 
	C109.503136,201.973297 107.658226,200.978073 105.457840,199.935638 
	C105.097252,199.897644 105.074013,199.944244 105.004379,199.689880 
	C104.623169,199.326889 104.311577,199.218231 103.999985,199.109589 
	C103.869774,198.994461 103.739571,198.879349 103.214569,198.442505 
	C101.912033,197.625870 101.004280,197.130966 100.096535,196.636047 
	C99.931572,196.476746 99.766609,196.317459 99.265182,196.086792 
	C98.263138,195.243668 97.597580,194.471939 97.257584,193.366684 
	C100.307220,194.422577 103.114014,195.672974 105.736397,197.233292 
	C109.885765,199.702179 113.851952,202.582123 119.117958,201.119736 
z"/>
<path fill="#463375" opacity="1.000000" stroke="none" 
	d="
M130.030457,195.273788 
	C128.918549,195.862976 127.806641,196.452164 126.369919,196.769745 
	C126.034187,195.998886 126.023285,195.499603 126.298721,194.864502 
	C127.726921,193.823685 128.868774,192.918686 130.324890,191.872192 
	C133.424774,189.819519 136.210388,187.908325 139.004227,185.750488 
	C139.012451,185.503845 139.034073,185.010788 139.387253,184.853821 
	C141.256989,184.506607 142.773544,184.316360 144.131805,184.427399 
	C141.937057,186.459885 139.900604,188.191071 137.864151,189.922272 
	C136.767624,190.812622 135.671097,191.702972 133.974670,192.696991 
	C132.898300,193.146286 132.421844,193.491928 131.664841,193.950928 
	C130.932999,194.467468 130.481735,194.870621 130.030457,195.273788 
z"/>
<path fill="#422F6B" opacity="1.000000" stroke="none" 
	d="
M124.692886,30.630196 
	C125.265427,30.780628 125.837967,30.931061 125.994911,31.475313 
	C118.667953,31.914167 111.755760,32.027805 104.845940,31.944574 
	C103.513290,31.928518 102.189926,31.141369 100.862282,30.709930 
	C105.275452,30.470158 109.688622,30.230383 114.556854,29.913416 
	C116.721977,29.879761 118.432045,29.923296 120.564972,29.899178 
	C121.459633,29.907753 121.931442,29.983984 122.969582,30.347672 
	C123.921570,30.633486 124.307228,30.631842 124.692886,30.630196 
z"/>
<path fill="#F0E4F8" opacity="1.000000" stroke="none" 
	d="
M138.181015,190.076202 
	C139.900604,188.191071 141.937057,186.459885 144.449280,184.332214 
	C146.954544,182.376068 148.984070,180.816422 151.013580,179.256775 
	C151.184937,179.746277 151.356293,180.235794 151.756042,180.861389 
	C148.312897,184.057388 143.349899,186.028625 142.398712,192.202316 
	C141.246643,191.619843 139.872253,190.924988 138.181015,190.076202 
z"/>
<path fill="#FAF5FA" opacity="1.000000" stroke="none" 
	d="
M50.998779,152.241119 
	C52.992905,154.688812 54.933723,157.506516 56.948082,160.657593 
	C51.448055,159.524658 49.719105,157.140198 50.998779,152.241119 
z"/>
<path fill="#F7F1FB" opacity="1.000000" stroke="none" 
	d="
M170.099533,162.074051 
	C170.445633,163.885605 170.791748,165.697159 171.255020,168.121964 
	C169.303101,167.824295 167.449081,167.541550 165.277496,166.870178 
	C164.959915,166.481552 165.081375,166.015686 165.313446,165.953003 
	C165.848770,165.712448 166.010162,165.447968 166.316147,164.964706 
	C167.660995,163.825272 168.719360,162.818054 169.857635,161.877304 
	C169.937531,161.943787 170.099533,162.074051 170.099533,162.074051 
z"/>
<path fill="#463375" opacity="1.000000" stroke="none" 
	d="
M175.202332,152.081161 
	C175.171738,152.797638 175.141144,153.514130 174.773682,154.769135 
	C173.041245,156.937347 171.645676,158.567032 170.174011,159.782623 
	C170.067368,158.247711 170.036804,157.126907 170.015167,155.763199 
	C170.024094,155.520294 170.032852,155.034225 170.383392,155.020081 
	C171.489273,154.337509 172.244598,153.669067 173.008514,152.757874 
	C173.017136,152.515137 173.044662,152.030136 173.404480,152.021561 
	C174.243622,152.035721 174.722977,152.058441 175.202332,152.081161 
z"/>
<path fill="#462C87" opacity="1.000000" stroke="none" 
	d="
M179.988770,136.954941 
	C180.038040,138.458786 180.087311,139.962646 180.188614,141.914948 
	C180.253036,142.744461 180.265442,143.125519 179.857651,143.882202 
	C178.656158,144.524384 177.874878,144.790939 176.807190,145.005707 
	C176.374664,144.889038 176.193832,144.856781 176.092896,144.749420 
	C176.005554,144.656540 175.935669,144.443832 175.983185,144.343140 
	C176.643463,142.944138 177.282211,141.532089 178.015427,140.171310 
	C178.611130,139.065735 179.326492,138.024628 179.988770,136.954941 
z"/>
<path fill="#F7F1FB" opacity="1.000000" stroke="none" 
	d="
M170.250092,160.196716 
	C171.645676,158.567032 173.041245,156.937347 174.709686,155.131378 
	C176.938187,159.349472 174.024002,160.668488 170.401520,161.902496 
	C170.099533,162.074051 169.937531,161.943787 169.913605,161.599548 
	C170.009094,160.898254 170.128525,160.541214 170.242172,160.164307 
	C170.236404,160.144424 170.250092,160.196701 170.250092,160.196716 
z"/>
<path fill="#F0E8F7" opacity="1.000000" stroke="none" 
	d="
M99.732590,196.754913 
	C101.004280,197.130966 101.912033,197.625870 102.978149,198.332626 
	C102.065414,199.127121 100.994301,199.709763 99.923195,200.292419 
	C99.738342,199.152863 99.553497,198.013321 99.732590,196.754913 
z"/>
<path fill="#462C87" opacity="1.000000" stroke="none" 
	d="
M175.468781,151.995483 
	C174.722977,152.058441 174.243622,152.035721 173.421997,151.676819 
	C174.394577,149.549377 175.709427,147.758118 177.160309,146.212967 
	C177.603333,146.664246 177.910355,146.869431 178.217361,147.074600 
	C178.217361,147.074600 178.107224,147.522842 177.855972,147.943710 
	C177.391602,149.167099 177.178467,149.969604 176.965332,150.772125 
	C176.555298,151.151337 176.145264,151.530563 175.468781,151.995483 
z"/>
<path fill="#463375" opacity="1.000000" stroke="none" 
	d="
M165.081375,166.015686 
	C165.081375,166.015686 164.959915,166.481552 164.919510,166.718872 
	C164.541504,166.994781 164.281525,167.157440 164.030975,167.670563 
	C162.884613,168.620636 161.806442,169.344315 160.407440,169.749512 
	C161.751526,168.292587 163.416458,167.154129 165.081375,166.015686 
z"/>
<path fill="#5F4C86" opacity="1.000000" stroke="none" 
	d="
M178.479919,147.036560 
	C177.910355,146.869431 177.603333,146.664246 177.176971,145.985840 
	C177.057632,145.512589 177.093582,145.057510 177.093582,145.057510 
	C177.874878,144.790939 178.656158,144.524384 179.727203,144.137970 
	C179.592117,145.011581 179.167297,146.005051 178.479919,147.036560 
z"/>
<path fill="#F0E8F7" opacity="1.000000" stroke="none" 
	d="
M131.945404,193.837555 
	C132.421844,193.491928 132.898300,193.146286 133.682159,192.857941 
	C133.991867,193.379272 133.994141,193.843307 133.998749,194.655243 
	C134.001053,195.003159 133.997116,195.493027 133.661682,195.693878 
	C132.865952,195.209000 132.405670,194.523285 131.945404,193.837555 
z"/>
<path fill="#493479" opacity="1.000000" stroke="none" 
	d="
M49.304108,147.294250 
	C49.882473,147.810593 50.421776,148.631531 50.931309,149.793655 
	C50.356041,149.289520 49.810547,148.444183 49.304108,147.294250 
z"/>
<path fill="#5F4C86" opacity="1.000000" stroke="none" 
	d="
M177.295959,150.663483 
	C177.178467,149.969604 177.391602,149.167099 177.857162,148.174500 
	C177.948608,148.841217 177.787598,149.698013 177.295959,150.663483 
z"/>
<path fill="#F5F0F8" opacity="1.000000" stroke="none" 
	d="
M135.259064,25.644836 
	C135.008179,25.630070 134.871460,25.496105 134.734756,25.362144 
	C134.947586,25.416643 135.160416,25.471142 135.259064,25.644836 
z"/>
<path fill="#F0E8F7" opacity="1.000000" stroke="none" 
	d="
M104.128052,199.316742 
	C104.311577,199.218231 104.623169,199.326889 105.027496,199.678818 
	C104.774017,199.915573 104.485985,199.782837 104.128052,199.316742 
z"/>
<path fill="#F0E8F7" opacity="1.000000" stroke="none" 
	d="
M93.468216,197.449966 
	C93.523415,197.417038 93.413010,197.482895 93.468216,197.449966 
z"/>
<path fill="#F7F1FB" opacity="1.000000" stroke="none" 
	d="
M175.531647,168.549744 
	C175.475906,168.582947 175.587387,168.516525 175.531647,168.549744 
z"/>
<path fill="#482793" opacity="1.000000" stroke="none" 
	d="
M176.807190,145.005707 
	C177.093582,145.057510 177.057632,145.512589 177.040955,145.739716 
	C175.709427,147.758118 174.394577,149.549377 173.062195,151.685394 
	C173.044662,152.030136 173.017136,152.515137 172.686432,152.783340 
	C171.581436,153.712448 170.807144,154.373337 170.032852,155.034225 
	C170.032852,155.034225 170.024094,155.520294 169.657776,155.755722 
	C168.767807,155.162186 167.624390,154.108261 167.829285,153.543762 
	C168.653015,151.274490 169.893890,149.156647 171.048828,146.616577 
	C172.072708,142.996475 173.183533,139.778381 173.943710,136.479507 
	C174.840179,132.589081 175.573471,128.645279 176.040268,124.684845 
	C176.134476,123.885780 174.720581,122.908951 173.996780,121.659485 
	C172.660522,120.538239 171.329453,119.771576 169.537903,119.005722 
	C153.061234,119.009933 137.045029,119.013344 120.686737,119.042877 
	C119.557236,120.029228 118.769829,120.989464 117.988876,121.970139 
	C117.995323,121.990578 117.952843,121.984734 117.612389,122.045624 
	C114.734352,124.342491 113.452667,126.456070 117.885208,128.482513 
	C117.926178,139.961914 117.929832,150.975189 117.574654,161.987305 
	C115.491066,161.320969 113.766312,160.655792 112.028259,159.533783 
	C112.026070,155.720505 112.037178,152.364075 112.388916,148.941467 
	C114.642822,147.200409 114.751923,145.846237 112.029968,144.620697 
	C112.040092,143.502625 112.059875,142.757370 112.438797,141.937897 
	C115.283722,138.955795 116.926529,136.031357 112.817917,132.638184 
	C112.488426,130.193985 112.312744,128.108826 112.371506,125.997749 
	C112.847549,125.809189 113.089149,125.646538 113.330750,125.483894 
	C112.924355,125.315582 112.517960,125.147270 112.068573,124.682816 
	C111.689880,123.932487 111.354172,123.478294 110.887253,122.848198 
	C110.520401,122.304207 110.284744,121.936119 109.991669,121.118843 
	C108.378090,120.114647 106.825424,119.089157 105.265221,119.077576 
	C90.078598,118.964798 74.889633,118.947922 59.705318,119.173111 
	C58.517307,119.190735 57.359379,121.236496 56.210400,122.253952 
	C56.233330,122.168259 56.371861,122.279121 56.003853,122.201477 
	C54.880463,122.350128 54.125080,122.576416 51.953762,123.226883 
	C54.312038,123.674980 55.183941,123.840652 56.093243,124.384125 
	C55.490631,126.838226 54.850620,128.914520 54.210609,130.990829 
	C52.708782,130.019653 51.206955,129.048462 49.355476,128.036728 
	C49.004063,101.143265 48.999584,74.290337 49.002350,47.437405 
	C49.003094,40.211746 50.120728,39.069267 57.399651,38.269291 
	C60.485943,37.930096 63.557358,37.381054 66.595055,36.736557 
	C67.207840,36.606544 67.637970,35.615589 68.359322,34.597771 
	C68.759552,34.240528 68.948738,34.317066 69.551620,34.575302 
	C70.303825,34.525120 70.638298,34.303223 70.972763,34.081329 
	C80.664513,32.865585 90.356255,31.649843 100.455139,30.572016 
	C102.189926,31.141369 103.513290,31.928518 104.845940,31.944574 
	C111.755760,32.027805 118.667953,31.914167 126.089066,31.789413 
	C135.737595,32.196007 145.055206,29.742971 154.023346,33.529362 
	C155.157028,34.008003 156.836380,33.194176 158.636612,33.089447 
	C161.142303,40.118080 167.260788,38.132431 172.062653,38.942844 
	C173.985306,39.267326 176.007874,38.999817 178.424179,38.997734 
	C178.863403,38.993690 178.943970,39.061775 178.998444,39.385506 
	C179.374924,40.151562 179.696930,40.593884 180.018951,41.036201 
	C180.023453,42.728504 180.027954,44.420803 179.716797,46.586563 
	C179.600128,47.720596 179.799103,48.381165 179.998093,49.041737 
	C180.008087,78.037300 180.018097,107.032867 180.008438,136.491684 
	C179.326492,138.024628 178.611130,139.065735 178.015427,140.171310 
	C177.282211,141.532089 176.643463,142.944138 175.983185,144.343140 
	C175.935669,144.443832 176.005554,144.656540 176.092896,144.749420 
	C176.193832,144.856781 176.374664,144.889038 176.807190,145.005707 
M149.261963,80.701775 
	C149.471451,80.388687 149.680939,80.075607 149.903122,79.923752 
	C149.903122,79.923752 149.743393,79.898346 150.489502,79.668686 
	C152.154709,77.287224 154.006607,74.884438 149.863083,73.124329 
	C149.863083,73.124329 149.810501,73.240677 149.862656,72.496536 
	C147.131027,68.581635 143.380890,67.293259 138.894089,68.164078 
	C138.894089,68.164078 138.868683,68.280647 138.642059,67.645821 
	C138.019852,67.499176 137.397629,67.352531 136.891510,67.122879 
	C136.891510,67.122879 136.837372,67.254921 136.874466,66.504059 
	C132.628555,64.012619 128.382660,61.521187 124.032417,58.506912 
	C124.079979,58.335682 124.127548,58.164448 124.847366,57.855938 
	C126.741478,54.481991 129.608765,51.390587 128.279083,46.894451 
	C128.186264,46.929871 128.093430,46.965294 127.395233,46.921265 
	C127.395233,46.065147 127.395233,45.209030 127.395233,44.201309 
	C119.950348,42.297310 118.772278,42.915741 118.787537,49.702206 
	C117.317085,52.998341 115.325821,56.060036 116.581772,60.122833 
	C116.846832,60.980263 114.355476,62.689800 113.066620,63.289165 
	C113.029144,62.809387 112.991669,62.329613 112.810165,61.376350 
	C112.587280,61.118904 112.312309,60.942730 111.875961,60.202339 
	C106.126389,57.949501 98.799011,60.770203 96.456749,66.387917 
	C92.971672,67.640831 89.486588,68.893745 85.284988,70.111504 
	C83.985237,71.709320 82.685486,73.307137 81.247971,75.625130 
	C81.288345,76.108963 81.328720,76.592789 81.273239,77.804474 
	C82.517639,79.229691 83.762039,80.654915 84.779190,82.571175 
	C84.523903,83.045380 84.268616,83.519585 83.314041,84.105133 
	C82.769402,85.751251 81.860397,87.401649 81.879707,89.041130 
	C81.886383,89.607437 84.962013,90.915718 85.324608,90.557571 
	C86.536690,89.360405 87.155449,87.562523 88.750557,85.996330 
	C89.499611,86.005302 90.248672,86.014275 91.032608,86.545998 
	C91.690704,86.692932 92.348801,86.839867 93.000610,86.999695 
	C93.000610,86.999695 93.009872,86.985115 93.081528,87.605194 
	C94.388496,88.069435 95.695457,88.533676 96.473877,89.427399 
	C100.181702,93.918716 98.540512,99.416382 99.352409,104.458382 
	C99.852974,107.566940 102.155762,106.325081 103.998848,106.805000 
	C104.327461,108.537445 104.656075,110.269882 105.421562,112.529999 
	C109.992447,114.466972 110.237663,110.680222 110.907967,108.088799 
	C112.394157,102.343185 113.546272,96.511154 114.902222,90.410141 
	C119.994347,95.268074 122.571915,95.287514 124.348579,90.335938 
	C131.657532,87.533562 138.966476,84.731178 146.934982,81.961784 
	C147.560440,81.514374 148.185883,81.066956 148.865646,80.798706 
	C148.865646,80.798706 148.679260,80.780922 149.261963,80.701775 
z"/>
<path fill="#4B377E" opacity="1.000000" stroke="none" 
	d="
M70.650764,34.028130 
	C70.638298,34.303223 70.303825,34.525120 69.662811,34.689880 
	C69.680435,34.413475 70.004601,34.194202 70.650764,34.028130 
z"/>
<path fill="#F7F4F9" opacity="1.000000" stroke="none" 
	d="
M110.049088,121.568024 
	C110.284744,121.936119 110.520401,122.304207 110.805733,123.308426 
	C110.931671,145.280121 111.007942,166.615692 111.065933,188.260468 
	C110.150040,190.960968 110.165062,190.933517 108.497192,190.021042 
	C106.680504,189.027130 104.832191,188.091003 102.696518,187.014801 
	C101.596748,186.649963 100.798119,186.399979 99.758530,186.012848 
	C99.081673,185.557510 98.645760,185.239304 98.134094,184.584396 
	C97.388794,183.802139 96.719238,183.356598 96.028534,182.947998 
	C96.007378,182.984955 96.083435,182.946671 95.944504,182.631287 
	C93.915482,181.139969 92.025375,179.964020 90.115585,178.834869 
	C90.095901,178.881653 90.197258,178.875793 90.107422,178.626343 
	C89.688164,178.324905 89.358734,178.272949 88.773705,178.119125 
	C88.133957,177.635956 87.749825,177.254669 87.238144,176.605835 
	C86.747437,176.265015 86.384254,176.191711 85.761513,176.005585 
	C85.276253,175.595398 85.050560,175.298035 84.828201,174.724442 
	C84.409180,174.579391 83.986824,174.710571 83.539154,174.835800 
	C83.513840,174.829834 83.463661,174.843491 83.409813,174.479919 
	C80.960091,171.997711 78.564217,169.879089 76.142899,167.813385 
	C76.117462,167.866287 76.234863,167.864883 76.148758,167.596893 
	C75.737617,167.157425 75.412575,166.985947 75.081818,166.860260 
	C75.076096,166.906067 75.163879,166.877533 75.064102,166.550049 
	C74.000412,165.751831 73.036514,165.281082 72.072609,164.810333 
	C70.284149,162.103699 68.926491,158.937637 66.624275,156.778900 
	C60.392551,150.935562 57.443371,143.761688 56.408806,135.505844 
	C56.236641,134.131943 55.284649,132.855728 54.451813,131.262604 
	C54.850620,128.914520 55.490631,126.838226 56.201309,124.108513 
	C56.305271,123.063110 56.338566,122.671112 56.371861,122.279121 
	C56.371861,122.279121 56.233330,122.168259 56.621819,122.111130 
	C74.689903,121.892006 92.369499,121.730011 110.049088,121.568024 
M77.470154,141.062256 
	C77.470154,141.062256 77.910034,141.145020 77.699707,141.791534 
	C76.717361,143.206116 75.735016,144.620712 74.189575,146.846176 
	C77.408981,148.415009 80.183006,149.766800 83.556137,151.648102 
	C87.104362,151.129486 90.652596,150.610855 94.766685,150.011719 
	C95.176987,149.638870 95.587280,149.266037 96.696968,148.650253 
	C97.088821,146.324844 97.480667,143.999435 98.042130,140.667450 
	C99.745094,140.077209 103.095490,138.915985 106.445892,137.754761 
	C106.463394,137.327744 106.480896,136.900711 106.498405,136.473694 
	C103.692284,135.890656 100.886162,135.307617 97.472878,134.310364 
	C89.693016,131.259125 82.162468,132.004532 74.235115,135.577393 
	C73.058571,136.147049 71.882019,136.716690 69.628304,137.807861 
	C72.991730,139.232590 75.014763,140.089539 77.470154,141.062256 
z"/>
<path fill="#472893" opacity="1.000000" stroke="none" 
	d="
M102.997665,187.129669 
	C104.832191,188.091003 106.680504,189.027130 108.497192,190.021042 
	C110.165062,190.933517 110.150040,190.960968 111.371643,188.225555 
	C112.122581,187.270416 112.549538,186.659424 112.888443,185.824280 
	C112.623062,185.317978 112.377930,185.119629 112.058014,184.561035 
	C112.055832,181.749283 112.060623,179.381607 112.480499,177.012970 
	C113.928345,178.069931 115.695381,179.033905 115.845215,180.204834 
	C116.185966,182.867691 115.732315,185.632233 115.601936,188.347031 
	C117.044891,189.544449 118.524063,190.771912 120.360733,192.036774 
	C122.145538,193.038712 123.572845,194.003281 124.700165,195.122025 
	C122.626350,197.234619 120.852524,199.193039 119.078690,201.151459 
	C119.078690,201.151459 119.063591,201.093536 119.090775,201.106628 
	C113.851952,202.582123 109.885765,199.702179 105.736397,197.233292 
	C103.114014,195.672974 100.307220,194.422577 97.200119,193.049622 
	C95.727249,191.835205 94.637398,190.604340 93.112267,188.874542 
	C91.115341,187.857986 89.553703,187.340363 87.992058,186.822754 
	C87.992058,186.822754 87.749321,186.817978 87.792755,186.356079 
	C86.866447,184.940430 85.896690,183.986649 84.926941,183.032883 
	C83.153961,182.122589 81.380989,181.212280 79.266563,179.789230 
	C77.290710,178.184616 75.656303,177.092758 74.021889,176.000916 
	C72.698769,173.904312 71.375648,171.807724 70.010185,169.370819 
	C70.541222,168.517075 71.114601,168.003601 72.240280,167.243866 
	C73.583023,166.957581 74.373451,166.917557 75.163879,166.877533 
	C75.163879,166.877533 75.076096,166.906067 75.175919,167.125900 
	C75.595444,167.518784 75.915154,167.691833 76.234863,167.864883 
	C76.234863,167.864883 76.117462,167.866287 76.118011,168.189209 
	C77.299217,172.093292 78.816254,175.284180 83.463661,174.843491 
	C83.463661,174.843491 83.513840,174.829834 83.853470,174.884583 
	C84.403687,174.959793 84.614273,174.980240 84.824860,175.000687 
	C85.050560,175.298035 85.276253,175.595398 85.928421,176.218277 
	C86.691826,176.653671 87.028755,176.763519 87.365685,176.873367 
	C87.749825,177.254669 88.133957,177.635956 88.918640,178.304077 
	C89.573532,178.804016 89.866219,178.898972 90.197258,178.875793 
	C90.197258,178.875793 90.095901,178.881653 90.104080,179.214661 
	C90.907211,182.780762 93.304070,183.199692 96.083435,182.946671 
	C96.083435,182.946671 96.007378,182.984955 96.059433,183.293274 
	C96.810936,184.041428 97.510391,184.481262 98.209846,184.921112 
	C98.645760,185.239304 99.081673,185.557510 99.759529,186.388489 
	C100.544662,187.867188 101.087845,188.833099 101.631020,189.798996 
	C102.086563,188.909225 102.542114,188.019440 102.997665,187.129669 
M113.811043,194.974533 
	C114.765587,194.747147 115.720131,194.519775 116.674675,194.292404 
	C116.634239,193.730682 116.593803,193.168961 116.553360,192.607239 
	C115.005157,192.685013 113.456955,192.762787 111.908752,192.840546 
	C112.309380,193.523422 112.710014,194.206314 113.811043,194.974533 
z"/>
<path fill="#482B91" opacity="1.000000" stroke="none" 
	d="
M75.064102,166.550049 
	C74.373451,166.917557 73.583023,166.957581 72.397369,166.997467 
	C72.011169,166.511108 72.020210,166.024872 72.050934,165.174500 
	C73.036514,165.281082 74.000412,165.751831 75.064102,166.550049 
z"/>
<path fill="#462C87" opacity="1.000000" stroke="none" 
	d="
M180.018250,48.694767 
	C179.799103,48.381165 179.600128,47.720596 179.699905,47.009201 
	C180.011902,47.421520 180.025146,47.884659 180.018250,48.694767 
z"/>
<path fill="#462C87" opacity="1.000000" stroke="none" 
	d="
M180.013763,40.741333 
	C179.696930,40.593884 179.374924,40.151562 179.030823,39.427132 
	C179.342010,39.578835 179.675308,40.012646 180.013763,40.741333 
z"/>
<path fill="#FFFFFF" opacity="1.000000" stroke="none" 
	d="
M131.664825,193.950928 
	C132.405670,194.523285 132.865952,195.209000 133.661377,195.938812 
	C134.234772,200.837967 130.693359,199.894043 127.416550,199.998383 
	C128.001175,198.655045 129.004593,197.311966 130.019241,195.621338 
	C130.481735,194.870621 130.932999,194.467468 131.664825,193.950928 
z"/>
<path fill="#482793" opacity="1.000000" stroke="none" 
	d="
M124.472061,30.436436 
	C124.307228,30.631842 123.921570,30.633486 123.316986,30.439522 
	C123.482452,30.243502 123.866852,30.243088 124.472061,30.436436 
z"/>
<path fill="#482B91" opacity="1.000000" stroke="none" 
	d="
M74.016953,176.260437 
	C75.656303,177.092758 77.290710,178.184616 78.963242,179.629272 
	C77.544304,179.098755 76.087234,178.215439 74.323578,177.185577 
	C74.015343,176.865997 74.013680,176.692963 74.016953,176.260437 
z"/>
<path fill="#482B91" opacity="1.000000" stroke="none" 
	d="
M84.970963,183.381683 
	C85.896690,183.986649 86.866447,184.940430 87.677002,186.319534 
	C86.683533,185.740067 85.849266,184.735260 84.970963,183.381683 
z"/>
<path fill="#482B91" opacity="1.000000" stroke="none" 
	d="
M88.072479,187.175568 
	C89.553703,187.340363 91.115341,187.857986 92.841515,188.698975 
	C91.388329,188.524368 89.770615,188.026382 88.072479,187.175568 
z"/>
<path fill="#412C71" opacity="1.000000" stroke="none" 
	d="
M119.433029,201.106110 
	C120.852524,199.193039 122.626350,197.234619 124.953133,195.133575 
	C125.674850,194.994064 125.843613,194.997208 126.012375,195.000336 
	C126.023285,195.499603 126.034187,195.998886 126.066650,196.872116 
	C123.987923,198.517639 121.887642,199.789215 119.433029,201.106110 
z"/>
<path fill="#462C87" opacity="1.000000" stroke="none" 
	d="
M170.980621,146.982849 
	C169.893890,149.156647 168.653015,151.274490 167.829285,153.543762 
	C167.624390,154.108261 168.767807,155.162186 169.648865,155.998627 
	C170.036804,157.126907 170.067368,158.247711 170.174011,159.782608 
	C170.250092,160.196701 170.236404,160.144424 169.866486,160.135498 
	C168.340942,161.783356 167.185318,163.440140 166.029694,165.096909 
	C166.010162,165.447968 165.848770,165.712448 165.313446,165.953003 
	C163.416458,167.154129 161.751526,168.292587 160.076904,169.799042 
	C159.256683,170.727921 158.446167,171.288757 157.281250,171.610703 
	C156.285797,169.915756 155.644730,168.459702 155.335449,167.003326 
	C156.109741,167.004288 156.552246,167.005569 157.050476,167.145737 
	C157.193665,167.333511 157.281113,167.382385 157.368546,167.431259 
	C157.247955,167.285751 157.127365,167.140228 157.095825,166.744415 
	C157.140442,166.087845 157.095993,165.681564 157.051544,165.275299 
	C156.366837,165.849045 155.682114,166.422775 154.632751,167.041504 
	C152.381134,168.014847 150.494156,168.943207 148.719604,169.536301 
	C152.898666,165.157379 156.965347,161.113739 161.348450,156.926666 
	C163.363876,154.185364 165.062851,151.587479 166.946930,148.727310 
	C167.744308,147.646179 168.356583,146.827316 169.142029,146.249847 
	C169.870346,146.655106 170.425491,146.818970 170.980621,146.982849 
z"/>
<path fill="#482B8B" opacity="1.000000" stroke="none" 
	d="
M148.607193,169.871582 
	C150.494156,168.943207 152.381134,168.014847 154.634064,167.043243 
	C155.000000,167.000000 155.003662,167.003662 155.003662,167.003662 
	C155.644730,168.459702 156.285797,169.915756 156.990234,171.721558 
	C157.053589,172.071320 157.033234,172.027740 156.685318,172.029572 
	C155.559677,172.978424 154.781952,173.925430 154.004242,174.872452 
	C153.190887,176.184021 152.377533,177.495590 151.288879,179.031967 
	C148.984070,180.816422 146.954544,182.376068 144.607574,184.030914 
	C142.773544,184.316360 141.256989,184.506607 139.129379,184.849884 
	C138.346664,185.002762 138.175003,185.002609 138.001678,185.001221 
	C138.000000,185.000000 137.997559,184.997559 137.934357,184.640228 
	C136.149139,183.484055 134.427109,182.685242 132.887497,181.585999 
	C134.269791,180.469376 135.500427,179.694519 136.664001,178.829483 
	C140.657730,175.860565 144.627991,172.860046 148.607193,169.871582 
z"/>
<path fill="#462C87" opacity="1.000000" stroke="none" 
	d="
M154.323349,174.915436 
	C154.781952,173.925430 155.559677,172.978424 156.706879,172.039047 
	C156.265060,173.017258 155.453766,173.987823 154.323349,174.915436 
z"/>
<path fill="#492A92" opacity="1.000000" stroke="none" 
	d="
M132.705093,181.886414 
	C134.427109,182.685242 136.149139,183.484055 137.576935,184.679901 
	C135.530914,185.888870 133.490128,186.379425 132.117874,187.613403 
	C131.000259,188.618439 130.682861,190.513367 130.010635,192.013687 
	C128.868774,192.918686 127.726921,193.823685 126.298721,194.864502 
	C125.843613,194.997208 125.674850,194.994064 125.253120,194.979401 
	C123.572845,194.003281 122.145538,193.038712 120.577126,191.768921 
	C121.260780,190.551422 122.085548,189.639130 123.027893,188.408554 
	C126.332016,186.022308 129.518555,183.954361 132.705093,181.886414 
z"/>
<path fill="#482B8B" opacity="1.000000" stroke="none" 
	d="
M130.324890,191.872192 
	C130.682861,190.513367 131.000259,188.618439 132.117874,187.613403 
	C133.490128,186.379425 135.530914,185.888870 137.640137,185.037247 
	C137.997559,184.997559 138.000000,185.000000 138.108368,185.219482 
	C138.415070,185.710754 138.674835,185.896805 138.996002,185.997116 
	C136.210388,187.908325 133.424774,189.819519 130.324890,191.872192 
z"/>
<path fill="#492A92" opacity="1.000000" stroke="none" 
	d="
M139.004227,185.750488 
	C138.674835,185.896805 138.415070,185.710754 138.110031,185.220703 
	C138.175003,185.002609 138.346664,185.002762 138.776199,185.006866 
	C139.034073,185.010788 139.012451,185.503845 139.004227,185.750488 
z"/>
<path fill="#463375" opacity="1.000000" stroke="none" 
	d="
M166.316162,164.964706 
	C167.185318,163.440140 168.340942,161.783356 169.872253,160.155365 
	C170.128525,160.541214 170.009094,160.898254 169.833710,161.533051 
	C168.719360,162.818054 167.660995,163.825272 166.316162,164.964706 
z"/>
<path fill="#462C87" opacity="1.000000" stroke="none" 
	d="
M170.383392,155.020081 
	C170.807144,154.373337 171.581436,153.712448 172.677826,153.026077 
	C172.244598,153.669067 171.489273,154.337509 170.383392,155.020081 
z"/>
<path fill="#F5EDF9" opacity="1.000000" stroke="none" 
	d="
M146.275421,81.928802 
	C138.966476,84.731178 131.657532,87.533562 123.757156,90.654816 
	C121.932869,91.332947 120.700012,91.692200 119.505562,92.040268 
	C118.993057,89.245041 118.526840,86.702255 118.438431,84.092667 
	C124.582932,81.801094 130.349625,79.576332 136.116333,77.351570 
	C133.078552,74.353668 130.352692,72.574089 127.415703,71.270020 
	C121.010384,68.425949 120.069328,68.979897 117.738304,76.236816 
	C115.899750,81.324928 114.338890,86.179916 112.575043,91.212662 
	C112.237076,91.904922 112.102112,92.419426 111.986374,92.944534 
	C112.005600,92.955132 111.985451,92.994141 111.748016,93.002304 
	C111.510582,93.010468 111.035583,93.024170 110.821686,93.014740 
	C110.607780,93.005318 110.180000,92.986214 110.026810,92.755539 
	C109.376373,92.333542 108.879143,92.142227 108.218933,91.700409 
	C107.696533,90.990135 107.337112,90.530357 106.933685,89.899467 
	C106.610237,89.701599 106.330795,89.674843 105.694275,89.696320 
	C104.630257,89.732521 103.923317,89.720497 103.129707,89.760712 
	C103.043037,89.812965 103.238792,89.761520 103.045418,89.473480 
	C100.693558,88.071877 98.535072,86.958313 96.135452,85.570908 
	C93.251617,84.114342 90.608917,82.931633 87.784271,81.475174 
	C85.524582,79.826500 83.446838,78.451561 81.369095,77.076622 
	C81.328720,76.592789 81.288345,76.108963 81.523544,75.037735 
	C83.199913,73.015785 84.600716,71.581223 86.001511,70.146660 
	C89.486588,68.893745 92.971672,67.640831 97.100975,66.163292 
	C100.477638,64.951721 103.210068,63.964779 106.236069,62.971252 
	C107.012589,62.682476 107.495537,62.400284 108.102402,61.992081 
	C108.226311,61.866074 108.579681,61.858147 109.012421,61.901276 
	C110.308678,61.967484 111.172195,61.990562 112.008186,62.437073 
	C112.097427,64.252510 112.214180,65.644508 112.108551,67.044830 
	C111.886169,67.053154 111.452126,67.151878 111.090225,67.136307 
	C110.151924,67.746231 109.575531,68.371735 108.784897,69.246628 
	C107.684029,69.865440 106.797386,70.234871 105.706085,70.449417 
	C105.000145,70.803207 104.498878,71.311874 103.751831,71.896034 
	C103.334671,71.973801 103.163284,71.976089 102.788910,71.733246 
	C99.452553,71.606857 98.083542,72.824921 99.882385,76.251740 
	C100.309639,77.493103 100.651810,78.446480 101.073547,79.704987 
	C102.081512,80.345329 103.009926,80.680550 104.203339,81.174408 
	C104.992958,81.654007 105.517570,81.974983 106.187775,82.468468 
	C106.579094,82.835457 106.858627,82.935555 107.393784,82.927414 
	C107.615601,82.913574 108.019737,83.098640 108.267960,83.353058 
	C111.120651,84.584984 112.143425,83.525307 111.999817,80.532837 
	C112.716820,76.772278 113.404480,73.404427 114.381371,69.884796 
	C114.041199,68.827263 113.411797,67.921501 112.878052,66.648697 
	C113.027206,65.523346 113.080696,64.765030 113.134178,64.006721 
	C114.355476,62.689800 116.846832,60.980263 116.581772,60.122833 
	C115.325821,56.060036 117.317085,52.998341 119.278114,49.212078 
	C126.101463,47.605042 126.808525,48.378826 124.998230,54.346172 
	C124.637390,55.535622 124.445129,56.776211 124.175125,57.993217 
	C124.127548,58.164448 124.079979,58.335682 123.981491,59.137218 
	C126.341385,65.523796 132.372086,65.040138 136.837372,67.254921 
	C136.837372,67.254921 136.891510,67.122879 137.008209,67.416687 
	C137.706177,67.900551 138.287430,68.090599 138.868683,68.280647 
	C138.868683,68.280647 138.894089,68.164078 139.032196,68.479721 
	C142.717041,70.277138 146.263779,71.758904 149.810501,73.240677 
	C149.810501,73.240677 149.863083,73.124329 149.854156,73.569275 
	C149.811279,75.975601 149.777328,77.936974 149.743393,79.898346 
	C149.743393,79.898346 149.903122,79.923752 149.627625,79.924126 
	C149.127838,80.209976 148.903549,80.495445 148.679260,80.780914 
	C148.679260,80.780922 148.865646,80.798706 148.530426,80.745239 
	C147.555283,81.104111 146.915359,81.516457 146.275421,81.928802 
M94.620850,77.214973 
	C94.574203,76.375000 94.527550,75.535019 94.480896,74.695045 
	C93.928925,74.904045 93.376953,75.113052 92.824989,75.322052 
	C93.255745,75.897385 93.686501,76.472717 94.620850,77.214973 
M97.009468,75.059204 
	C97.110336,76.029495 97.211205,76.999786 97.312073,77.970085 
	C97.614052,77.888885 97.916031,77.807693 98.218010,77.726494 
	C97.838051,76.629250 97.458092,75.532005 97.009468,75.059204 
z"/>
<path fill="#462F7B" opacity="1.000000" stroke="none" 
	d="
M118.060623,84.159470 
	C118.526840,86.702255 118.993057,89.245041 119.505562,92.040268 
	C120.700012,91.692200 121.932869,91.332947 123.560287,90.939880 
	C122.571915,95.287514 119.994347,95.268074 114.902222,90.410141 
	C113.546272,96.511154 112.394157,102.343185 110.907967,108.088799 
	C110.237663,110.680222 109.992447,114.466972 105.437439,112.109009 
	C105.647789,110.430832 105.842262,109.173637 106.417931,107.956970 
	C108.178589,104.332863 109.558044,100.668236 111.003922,96.796356 
	C111.070343,96.589104 111.086349,96.154114 111.350204,95.932999 
	C111.737862,94.805962 111.861656,93.900055 111.985451,92.994141 
	C111.985451,92.994141 112.005600,92.955132 112.203537,92.771904 
	C112.526985,92.070755 112.652512,91.552834 112.778038,91.034912 
	C114.338890,86.179916 115.899750,81.324928 118.007935,76.472275 
	C118.390388,79.036232 118.225510,81.597855 118.060623,84.159470 
z"/>
<path fill="#43278C" opacity="1.000000" stroke="none" 
	d="
M122.910309,188.726837 
	C122.085548,189.639130 121.260780,190.551422 120.219635,191.731552 
	C118.524063,190.771912 117.044891,189.544449 115.601936,188.347031 
	C115.732315,185.632233 116.185966,182.867691 115.845215,180.204834 
	C115.695381,179.033905 113.928345,178.069931 112.458298,176.544189 
	C112.027855,170.714478 112.034706,165.352554 112.041557,159.990631 
	C113.766312,160.655792 115.491066,161.320969 117.603210,162.456543 
	C118.001068,166.071808 117.920296,169.220200 118.042542,172.360687 
	C118.245422,177.572403 118.578812,182.779037 118.969482,188.239685 
	C119.398148,188.603317 119.714539,188.715088 120.388893,188.895142 
	C121.468010,188.884567 122.189156,188.805710 122.910309,188.726837 
z"/>
<path fill="#3C2672" opacity="1.000000" stroke="none" 
	d="
M109.991676,121.118835 
	C92.369499,121.730011 74.689903,121.892006 56.598885,122.196823 
	C57.359379,121.236496 58.517307,119.190735 59.705318,119.173111 
	C74.889633,118.947922 90.078598,118.964798 105.265221,119.077576 
	C106.825424,119.089157 108.378090,120.114647 109.991676,121.118835 
z"/>
<path fill="#3B266D" opacity="1.000000" stroke="none" 
	d="
M121.028831,119.016754 
	C137.045029,119.013344 153.061234,119.009933 169.656860,119.285416 
	C170.487320,120.321686 170.738342,121.079063 170.523651,121.895142 
	C167.915894,121.862267 165.774277,121.703651 163.631714,121.689957 
	C149.425034,121.599136 135.218155,121.539383 121.018219,121.162720 
	C121.026344,120.242874 121.027588,119.629814 121.028831,119.016754 
z"/>
<path fill="#47269B" opacity="1.000000" stroke="none" 
	d="
M103.989906,105.996033 
	C102.155762,106.325081 99.852974,107.566940 99.352409,104.458382 
	C98.540512,99.416382 100.181702,93.918716 97.127953,89.258896 
	C99.600952,89.314102 101.419868,89.537811 103.238792,89.761520 
	C103.238792,89.761520 103.043037,89.812965 103.093964,90.166443 
	C103.757805,93.125168 104.729294,95.709793 104.880684,98.341576 
	C105.025978,100.867622 104.321144,103.442574 103.989906,105.996033 
z"/>
<path fill="#301B68" opacity="1.000000" stroke="none" 
	d="
M112.028259,159.533783 
	C112.034706,165.352554 112.027855,170.714478 112.043213,176.545166 
	C112.060623,179.381607 112.055832,181.749283 112.138153,184.788452 
	C112.409409,185.740646 112.659813,185.936813 112.976486,186.048431 
	C112.549538,186.659424 112.122581,187.270416 111.389923,187.916321 
	C111.007942,166.615692 110.931671,145.280121 110.936935,123.484329 
	C111.354172,123.478294 111.689880,123.932487 112.055504,124.944572 
	C112.102631,125.676193 112.119843,125.849930 112.137054,126.023659 
	C112.312744,128.108826 112.488426,130.193985 112.533020,132.922745 
	C112.294510,136.381592 112.187088,139.196838 112.079666,142.012100 
	C112.059875,142.757370 112.040092,143.502625 112.015152,145.022003 
	C112.022766,146.866623 112.035530,147.937149 112.048286,149.007660 
	C112.037178,152.364075 112.026070,155.720505 112.028259,159.533783 
z"/>
<path fill="#271158" opacity="1.000000" stroke="none" 
	d="
M118.857208,187.987823 
	C118.578812,182.779037 118.245422,177.572403 118.042542,172.360687 
	C117.920296,169.220200 118.001068,166.071808 117.962044,162.457733 
	C117.929832,150.975189 117.926178,139.961914 117.931274,128.053436 
	C117.944305,125.433746 117.948578,123.709244 117.952843,121.984734 
	C117.952843,121.984734 117.995323,121.990578 118.267448,121.993729 
	C118.725639,122.004700 118.911705,122.012527 119.072182,122.487160 
	C118.983467,144.631927 118.920334,166.309875 118.857208,187.987823 
z"/>
<path fill="#492F80" opacity="1.000000" stroke="none" 
	d="
M103.994377,106.400513 
	C104.321144,103.442574 105.025978,100.867622 104.880684,98.341576 
	C104.729294,95.709793 103.757805,93.125168 103.180634,90.114197 
	C103.923317,89.720497 104.630257,89.732521 105.910095,89.836472 
	C106.647896,89.975792 106.812798,90.023186 106.977692,90.070580 
	C107.337112,90.530357 107.696533,90.990135 108.189041,92.000954 
	C108.622574,93.013947 108.923027,93.475891 109.132607,94.309364 
	C108.974716,95.442451 108.907692,96.204025 108.580376,97.152489 
	C107.558968,100.865074 106.797852,104.390762 106.036736,107.916451 
	C105.842262,109.173637 105.647789,110.430832 105.218994,111.845169 
	C104.656075,110.269882 104.327461,108.537445 103.994377,106.400513 
z"/>
<path fill="#3A2664" opacity="1.000000" stroke="none" 
	d="
M171.048828,146.616577 
	C170.425491,146.818970 169.870346,146.655106 169.253174,145.910065 
	C169.835770,143.333710 170.480408,141.338516 171.364059,139.207367 
	C171.662460,138.725067 171.721832,138.378708 171.868713,137.571472 
	C172.031952,132.401215 172.107697,127.691841 172.459167,122.961411 
	C173.157257,122.631592 173.579620,122.322838 174.001984,122.014076 
	C174.720581,122.908951 176.134476,123.885780 176.040268,124.684845 
	C175.573471,128.645279 174.840179,132.589081 173.943710,136.479507 
	C173.183533,139.778381 172.072708,142.996475 171.048828,146.616577 
z"/>
<path fill="#442582" opacity="1.000000" stroke="none" 
	d="
M124.511246,57.924576 
	C124.445129,56.776211 124.637390,55.535622 124.998230,54.346172 
	C126.808525,48.378826 126.101463,47.605042 119.419998,48.877853 
	C118.772278,42.915741 119.950348,42.297310 127.395233,44.201309 
	C127.395233,45.209030 127.395233,46.065147 127.697617,46.960632 
	C128.000000,47.000000 127.999390,46.999454 127.999390,46.999454 
	C129.608765,51.390587 126.741478,54.481991 124.511246,57.924576 
z"/>
<path fill="#472D79" opacity="1.000000" stroke="none" 
	d="
M108.579681,61.858147 
	C108.579681,61.858147 108.226311,61.866074 107.806702,61.986374 
	C106.905563,62.397057 106.424034,62.687443 105.942505,62.977833 
	C103.210068,63.964779 100.477638,64.951721 97.376839,65.932144 
	C98.799011,60.770203 106.126389,57.949501 111.570824,60.605473 
	C110.370354,61.291786 109.475014,61.574966 108.579681,61.858147 
z"/>
<path fill="#47269B" opacity="1.000000" stroke="none" 
	d="
M88.001480,85.994743 
	C87.155449,87.562523 86.536690,89.360405 85.324608,90.557571 
	C84.962013,90.915718 81.886383,89.607437 81.879707,89.041130 
	C81.860397,87.401649 82.769402,85.751251 83.955948,84.193733 
	C85.732399,84.853134 86.866943,85.423943 88.001480,85.994743 
z"/>
<path fill="#3C2672" opacity="1.000000" stroke="none" 
	d="
M136.855927,66.879486 
	C132.372086,65.040138 126.341385,65.523796 124.033653,59.398640 
	C128.382660,61.521187 132.628555,64.012619 136.855927,66.879486 
z"/>
<path fill="#412D74" opacity="1.000000" stroke="none" 
	d="
M88.376022,85.995537 
	C86.866943,85.423943 85.732399,84.853134 84.305588,84.138062 
	C84.268616,83.519585 84.523903,83.045380 85.258514,82.247253 
	C86.480629,81.865204 87.223427,81.807060 87.966217,81.748917 
	C90.608917,82.931633 93.251617,84.114342 95.779984,85.622742 
	C94.780396,86.293983 93.895134,86.639549 93.009872,86.985123 
	C93.009872,86.985115 93.000610,86.999695 92.832741,86.751678 
	C92.109154,86.343529 91.553436,86.183388 90.997726,86.023254 
	C90.248672,86.014275 89.499611,86.005302 88.376022,85.995537 
z"/>
<path fill="#43278C" opacity="1.000000" stroke="none" 
	d="
M112.438805,141.937897 
	C112.187088,139.196838 112.294510,136.381592 112.686829,133.281769 
	C116.926529,136.031357 115.283722,138.955795 112.438805,141.937897 
z"/>
<path fill="#472D79" opacity="1.000000" stroke="none" 
	d="
M149.836578,72.868607 
	C146.263779,71.758904 142.717041,70.277138 138.975143,68.497124 
	C143.380890,67.293259 147.131027,68.581635 149.836578,72.868607 
z"/>
<path fill="#4A3389" opacity="1.000000" stroke="none" 
	d="
M93.045700,87.295158 
	C93.895134,86.639549 94.780396,86.293983 96.021118,85.896591 
	C98.535072,86.958313 100.693558,88.071877 103.045418,89.473480 
	C101.419868,89.537811 99.600952,89.314102 97.392227,89.044144 
	C95.695457,88.533676 94.388496,88.069435 93.045700,87.295158 
z"/>
<path fill="#F3EAF8" opacity="1.000000" stroke="none" 
	d="
M87.784271,81.475174 
	C87.223427,81.807060 86.480629,81.865204 85.372131,82.001740 
	C83.762039,80.654915 82.517639,79.229691 81.321167,77.440552 
	C83.446838,78.451561 85.524582,79.826500 87.784271,81.475174 
z"/>
<path fill="#43278C" opacity="1.000000" stroke="none" 
	d="
M117.612389,122.045624 
	C117.948578,123.709244 117.944305,125.433746 117.893967,127.587326 
	C113.452667,126.456070 114.734352,124.342491 117.612389,122.045624 
z"/>
<path fill="#43278C" opacity="1.000000" stroke="none" 
	d="
M173.996780,121.659485 
	C173.579620,122.322838 173.157257,122.631592 172.384521,122.733398 
	C172.034149,122.526459 171.929230,122.057472 172.072739,121.991661 
	C172.125580,121.973900 172.034897,122.021942 171.698685,122.039520 
	C171.453140,122.009056 170.989380,121.836441 170.989380,121.836441 
	C170.738342,121.079063 170.487320,120.321686 170.117340,119.284607 
	C171.329453,119.771576 172.660522,120.538239 173.996780,121.659485 
z"/>
<path fill="#472D79" opacity="1.000000" stroke="none" 
	d="
M150.116455,79.783516 
	C149.777328,77.936974 149.811279,75.975601 149.796661,73.597023 
	C154.006607,74.884438 152.154709,77.287224 150.116455,79.783516 
z"/>
<path fill="#F3EAF8" opacity="1.000000" stroke="none" 
	d="
M85.643250,70.129082 
	C84.600716,71.581223 83.199913,73.015785 81.592422,74.677650 
	C82.685486,73.307137 83.985237,71.709320 85.643250,70.129082 
z"/>
<path fill="#43278C" opacity="1.000000" stroke="none" 
	d="
M112.388916,148.941467 
	C112.035530,147.937149 112.022766,146.866623 112.024811,145.394806 
	C114.751923,145.846237 114.642822,147.200409 112.388916,148.941467 
z"/>
<path fill="#43278C" opacity="1.000000" stroke="none" 
	d="
M119.097763,122.020348 
	C118.911705,122.012527 118.725639,122.004700 118.261002,121.973289 
	C118.769829,120.989464 119.557236,120.029228 120.686737,119.042877 
	C121.027588,119.629814 121.026344,120.242874 120.742134,121.265656 
	C120.309631,121.802742 120.160095,121.930107 119.783264,122.026047 
	C119.555969,121.994629 119.097763,122.020348 119.097763,122.020348 
z"/>
<path fill="#3C2672" opacity="1.000000" stroke="none" 
	d="
M56.003853,122.201477 
	C56.338566,122.671112 56.305271,123.063110 56.163910,123.730713 
	C55.183941,123.840652 54.312038,123.674980 51.953762,123.226883 
	C54.125080,122.576416 54.880463,122.350128 56.003853,122.201477 
z"/>
<path fill="#271158" opacity="1.000000" stroke="none" 
	d="
M113.100403,63.647942 
	C113.080696,64.765030 113.027206,65.523346 112.762779,66.600967 
	C112.551834,66.920288 112.330940,67.036514 112.330940,67.036514 
	C112.214180,65.644508 112.097427,64.252510 112.236710,62.389881 
	C112.492760,61.919258 112.954193,61.849834 112.954193,61.849834 
	C112.991669,62.329613 113.029144,62.809387 113.100403,63.647942 
z"/>
<path fill="#F3EAF8" opacity="1.000000" stroke="none" 
	d="
M112.882179,61.613091 
	C112.954193,61.849834 112.492760,61.919258 112.264236,61.966450 
	C111.172195,61.990562 110.308678,61.967484 109.012421,61.901276 
	C109.475014,61.574966 110.370354,61.291786 111.625473,60.928223 
	C112.312309,60.942730 112.587280,61.118904 112.882179,61.613091 
z"/>
<path fill="#4A3389" opacity="1.000000" stroke="none" 
	d="
M91.015167,86.284622 
	C91.553436,86.183388 92.109154,86.343529 92.835876,86.745239 
	C92.348801,86.839867 91.690704,86.692932 91.015167,86.284622 
z"/>
<path fill="#472D79" opacity="1.000000" stroke="none" 
	d="
M146.605194,81.945297 
	C146.915359,81.516457 147.555283,81.104111 148.503265,80.655655 
	C148.185883,81.066956 147.560440,81.514374 146.605194,81.945297 
z"/>
<path fill="#472D79" opacity="1.000000" stroke="none" 
	d="
M138.755371,67.963234 
	C138.287430,68.090599 137.706177,67.900551 136.950165,67.458191 
	C137.397629,67.352531 138.019852,67.499176 138.755371,67.963234 
z"/>
<path fill="#43278C" opacity="1.000000" stroke="none" 
	d="
M112.371506,125.997749 
	C112.119843,125.849930 112.102631,125.676193 112.098495,125.240707 
	C112.517960,125.147270 112.924355,125.315582 113.330750,125.483894 
	C113.089149,125.646538 112.847549,125.809189 112.371506,125.997749 
z"/>
<path fill="#472D79" opacity="1.000000" stroke="none" 
	d="
M148.970612,80.741348 
	C148.903549,80.495445 149.127838,80.209976 149.621277,79.843506 
	C149.680939,80.075607 149.471451,80.388687 148.970612,80.741348 
z"/>
<path fill="#442582" opacity="1.000000" stroke="none" 
	d="
M128.000305,47.000359 
	C128.093430,46.965294 128.186264,46.929871 128.139236,46.946953 
	C127.999390,46.999454 128.000000,47.000000 128.000305,47.000359 
z"/>
<path fill="#472B86" opacity="1.000000" stroke="none" 
	d="
M82.957031,151.118591 
	C80.183006,149.766800 77.408981,148.415009 74.189575,146.846176 
	C75.735016,144.620712 76.717361,143.206116 77.923279,141.168808 
	C77.762733,139.696976 77.378616,138.847885 76.997398,137.999237 
	C77.000305,137.999710 77.001083,138.005264 76.964310,137.687378 
	C76.297737,136.929398 75.667953,136.489319 74.987305,135.985657 
	C74.936447,135.922089 74.832024,135.797119 74.832024,135.797119 
	C82.162468,132.004532 89.693016,131.259125 97.908012,134.819489 
	C99.128792,135.905685 99.914444,136.482773 100.995316,137.276718 
	C99.326576,137.986267 98.159935,138.482330 96.983200,138.582184 
	C95.378784,134.350204 92.870636,136.174896 88.985161,137.035828 
	C92.217171,138.346558 94.107056,139.113007 95.644188,139.952118 
	C93.880852,140.999527 92.470268,141.974258 90.640686,142.955444 
	C87.288689,142.633179 84.355690,142.304459 80.953148,141.923126 
	C81.870453,147.983078 86.208984,143.995560 87.425446,145.416473 
	C90.104401,148.545639 93.011360,147.176773 95.968582,147.313919 
	C95.985771,148.050919 95.991676,148.472061 95.997581,148.893204 
	C95.587280,149.266037 95.176987,149.638870 94.118271,149.996521 
	C89.965584,150.360428 86.461311,150.739502 82.957031,151.118591 
M87.005661,136.715256 
	C86.771004,136.788834 86.536354,136.862411 86.301697,136.935989 
	C86.567215,137.197327 86.832733,137.458679 87.098251,137.720016 
	C87.170197,137.485794 87.242142,137.251556 87.005661,136.715256 
M79.588173,147.517029 
	C79.588173,147.517029 79.476982,147.583466 79.588173,147.517029 
z"/>
<path fill="#3B296A" opacity="1.000000" stroke="none" 
	d="
M91.059692,142.949005 
	C92.470268,141.974258 93.880852,140.999527 95.858948,139.863434 
	C96.692383,139.521179 96.881325,139.279953 96.993286,138.978394 
	C98.159935,138.482330 99.326576,137.986267 100.995316,137.276718 
	C99.914444,136.482773 99.128792,135.905685 98.211594,135.026581 
	C100.886162,135.307617 103.692284,135.890656 106.498405,136.473694 
	C106.480896,136.900711 106.463394,137.327744 106.445892,137.754761 
	C103.095490,138.915985 99.745094,140.077209 98.042130,140.667450 
	C97.480667,143.999435 97.088821,146.324844 96.347275,148.771729 
	C95.991676,148.472061 95.985771,148.050919 95.977219,146.959595 
	C95.315392,145.525040 94.656212,144.760651 93.998520,143.998138 
	C94.000000,144.000000 94.003563,144.002731 93.813286,143.732849 
	C92.768570,143.291656 91.914131,143.120331 91.059692,142.949005 
z"/>
<path fill="#482B91" opacity="1.000000" stroke="none" 
	d="
M83.409813,174.479919 
	C78.816254,175.284180 77.299217,172.093292 76.143448,168.136307 
	C78.564217,169.879089 80.960091,171.997711 83.409813,174.479919 
z"/>
<path fill="#4A3480" opacity="1.000000" stroke="none" 
	d="
M83.256584,151.383347 
	C86.461311,150.739502 89.965584,150.360428 93.835342,150.036789 
	C90.652596,150.610855 87.104362,151.129486 83.256584,151.383347 
z"/>
<path fill="#492F80" opacity="1.000000" stroke="none" 
	d="
M77.037796,140.946472 
	C75.014763,140.089539 72.991730,139.232590 69.628304,137.807861 
	C71.882019,136.716690 73.058571,136.147049 74.533569,135.687256 
	C74.832024,135.797119 74.936447,135.922089 74.880600,136.227783 
	C75.550194,137.024063 76.275642,137.514664 77.001083,138.005264 
	C77.001083,138.005264 77.000305,137.999710 77.004135,138.367767 
	C77.017906,139.472717 77.027855,140.209595 77.037796,140.946472 
z"/>
<path fill="#482B91" opacity="1.000000" stroke="none" 
	d="
M95.944504,182.631287 
	C93.304070,183.199692 90.907211,182.780762 90.123764,179.167877 
	C92.025375,179.964020 93.915482,181.139969 95.944504,182.631287 
z"/>
<path fill="#482B91" opacity="1.000000" stroke="none" 
	d="
M102.696518,187.014801 
	C102.542114,188.019440 102.086563,188.909225 101.631020,189.798996 
	C101.087845,188.833099 100.544662,187.867188 100.000488,186.525650 
	C100.798119,186.399979 101.596748,186.649963 102.696518,187.014801 
z"/>
<path fill="#4A299C" opacity="1.000000" stroke="none" 
	d="
M77.253975,141.004364 
	C77.027855,140.209595 77.017906,139.472717 77.001228,138.367310 
	C77.378616,138.847885 77.762733,139.696976 78.028442,140.845551 
	C77.910034,141.145020 77.470154,141.062256 77.253975,141.004364 
z"/>
<path fill="#482B91" opacity="1.000000" stroke="none" 
	d="
M98.134094,184.584396 
	C97.510391,184.481262 96.810936,184.041428 96.080582,183.256317 
	C96.719238,183.356598 97.388794,183.802139 98.134094,184.584396 
z"/>
<path fill="#482B91" opacity="1.000000" stroke="none" 
	d="
M90.107422,178.626343 
	C89.866219,178.898972 89.573532,178.804016 89.174255,178.405945 
	C89.358734,178.272949 89.688164,178.324905 90.107422,178.626343 
z"/>
<path fill="#482B91" opacity="1.000000" stroke="none" 
	d="
M87.238144,176.605835 
	C87.028755,176.763519 86.691826,176.653671 86.187988,176.331116 
	C86.384254,176.191711 86.747437,176.265015 87.238144,176.605835 
z"/>
<path fill="#482B91" opacity="1.000000" stroke="none" 
	d="
M84.828201,174.724442 
	C84.614273,174.980240 84.403687,174.959793 83.878784,174.890564 
	C83.986824,174.710571 84.409180,174.579391 84.828201,174.724442 
z"/>
<path fill="#482B91" opacity="1.000000" stroke="none" 
	d="
M76.148758,167.596893 
	C75.915154,167.691833 75.595444,167.518784 75.181633,167.080109 
	C75.412575,166.985947 75.737617,167.157425 76.148758,167.596893 
z"/>
<path fill="#43278C" opacity="1.000000" stroke="none" 
	d="
M113.460846,194.931854 
	C112.710014,194.206314 112.309380,193.523422 111.908752,192.840546 
	C113.456955,192.762787 115.005157,192.685013 116.553360,192.607239 
	C116.593803,193.168961 116.634239,193.730682 116.674675,194.292404 
	C115.720131,194.519775 114.765587,194.747147 113.460846,194.931854 
z"/>
<path fill="#43278C" opacity="1.000000" stroke="none" 
	d="
M112.888443,185.824280 
	C112.659813,185.936813 112.409409,185.740646 112.145126,185.232513 
	C112.377930,185.119629 112.623062,185.317978 112.888443,185.824280 
z"/>
<path fill="#F9F5FC" opacity="1.000000" stroke="none" 
	d="
M120.010567,122.057472 
	C120.160095,121.930107 120.309631,121.802742 120.735260,121.572449 
	C135.218155,121.539383 149.425034,121.599136 163.631714,121.689957 
	C165.774277,121.703651 167.915894,121.862267 170.523666,121.895142 
	C170.989380,121.836441 171.453140,122.009056 171.723938,122.003525 
	C171.994751,121.997986 171.929230,122.057472 171.929230,122.057472 
	C171.929230,122.057472 172.034149,122.526459 172.108795,122.754463 
	C172.107697,127.691841 172.031952,132.401215 171.676270,137.740906 
	C171.305893,138.695251 171.215469,139.019272 171.125031,139.343307 
	C170.480408,141.338516 169.835770,143.333710 169.079987,145.668686 
	C168.356583,146.827316 167.744308,147.646179 166.614365,148.654816 
	C164.933701,148.236038 163.770706,147.627502 162.445206,146.728546 
	C161.857712,144.934143 161.432709,143.430161 160.999298,141.667725 
	C160.771286,140.962189 160.551682,140.515091 160.194168,139.842712 
	C159.817001,139.378754 159.577744,139.140076 159.292358,138.548065 
	C159.152100,137.489334 159.057999,136.783920 159.065552,135.795334 
	C157.898697,132.604385 156.959930,132.438934 154.700943,134.885010 
	C153.635681,135.674530 152.867142,136.356369 151.742691,136.859634 
	C148.763123,136.433441 146.139465,136.185837 143.609009,135.530548 
	C143.461029,134.983032 143.219849,134.843170 142.864014,134.594421 
	C142.495712,134.828049 142.242065,135.170578 141.695068,135.631592 
	C140.995529,135.859177 140.589340,135.968292 139.885925,135.859268 
	C138.646759,133.444916 137.704819,131.248718 136.762863,129.052505 
	C136.378082,129.216904 135.993301,129.381287 135.608521,129.545685 
	C135.234573,131.763809 134.860611,133.981949 134.215408,136.023346 
	C133.224426,135.475082 132.534180,134.870224 131.779526,134.774765 
	C129.279465,134.458603 126.756172,134.326019 123.946136,134.067535 
	C123.304504,134.630264 122.958527,135.248459 122.674164,136.278381 
	C122.875351,137.790009 123.014938,138.889908 123.082199,140.240189 
	C122.960495,140.657181 122.911133,140.823776 122.713791,141.086426 
	C122.513832,141.287109 122.390373,141.434814 122.422775,141.488586 
	C122.537720,141.679337 122.705849,141.838058 122.915436,142.267822 
	C123.020149,142.698837 123.063271,142.870926 123.045898,142.991898 
	C122.985397,142.940781 122.827354,142.930206 122.579620,142.968933 
	C122.485764,143.674469 122.639633,144.341248 122.874901,145.254303 
	C123.013962,145.663574 123.071625,145.826599 123.065224,146.208801 
	C123.001152,146.428009 123.049805,146.882141 123.113121,147.115921 
	C123.343781,147.637619 123.575760,147.857315 123.926910,148.255646 
	C123.920776,148.659760 123.860100,148.817017 123.494621,149.015045 
	C122.602402,149.739746 122.014977,150.423691 120.593620,152.078568 
	C124.844475,151.636353 127.922699,151.316132 131.060684,151.337921 
	C132.344421,151.852402 133.579941,151.968933 134.788208,152.217743 
	C135.546967,152.373993 136.264832,152.728790 136.826782,153.318848 
	C134.678680,153.800812 132.634567,153.697632 130.754791,154.204224 
	C129.414871,154.565308 127.320366,155.697083 127.276199,156.571472 
	C127.176346,158.548737 128.137146,160.579590 128.666534,162.588623 
	C129.811768,161.772263 130.891739,160.834534 132.120651,160.173859 
	C133.337296,159.519791 134.766418,158.613129 135.992493,158.756516 
	C138.725159,159.076050 141.389313,159.981506 144.910767,160.853622 
	C145.074539,161.263489 145.757019,162.971664 146.439514,164.679840 
	C146.805847,164.615128 147.172165,164.550430 147.538498,164.485733 
	C147.903778,161.820633 148.269073,159.155548 148.663681,156.276459 
	C147.441284,155.517563 146.219559,154.759079 145.201385,153.741669 
	C146.610031,153.037033 147.815170,152.591354 149.304138,152.034760 
	C150.073486,151.681824 150.558975,151.439819 151.314819,151.435791 
	C156.106613,151.564209 153.159088,148.230453 153.828903,146.315445 
	C153.822372,146.169846 154.059891,146.000885 154.494751,146.003143 
	C155.799820,146.043884 156.670029,146.082367 157.527557,146.481064 
	C158.431900,148.702530 156.942184,152.199631 160.962280,152.268433 
	C160.973587,154.088196 161.002792,155.579132 161.032013,157.070084 
	C156.965347,161.113739 152.898666,165.157379 148.719604,169.536316 
	C144.627991,172.860046 140.657730,175.860565 136.664001,178.829483 
	C135.500427,179.694519 134.269791,180.469376 132.887497,181.585983 
	C129.518555,183.954361 126.332016,186.022308 123.027893,188.408554 
	C122.189156,188.805710 121.468010,188.884567 120.376984,188.438065 
	C120.008270,165.960968 120.009422,144.009216 120.010567,122.057472 
M128.000214,129.263016 
	C127.762321,128.324249 127.524429,127.385475 127.286537,126.446701 
	C126.821175,126.679779 126.355812,126.912857 125.890450,127.145943 
	C126.590500,128.100204 127.290543,129.054474 128.065552,130.680008 
	C129.276382,131.289566 130.487213,131.899139 131.698029,132.508698 
	C131.867371,131.971344 132.036713,131.433990 132.206039,130.896652 
	C130.807205,130.594604 129.408371,130.292557 128.000214,129.263016 
M132.696609,170.158157 
	C132.471863,171.202057 132.247116,172.245941 132.022369,173.289841 
	C134.532822,172.747879 137.129715,172.428864 139.494720,171.511810 
	C140.108261,171.273895 139.996445,169.165314 140.217804,167.915985 
	C138.326752,168.265060 136.427353,168.576355 134.550858,168.991257 
	C134.111145,169.088470 133.748947,169.536301 132.696609,170.158157 
M164.355042,138.407410 
	C164.810577,139.811935 165.266129,141.216446 165.721664,142.620956 
	C166.069763,142.593277 166.417847,142.565598 166.765945,142.537903 
	C167.011612,140.911743 167.257278,139.285568 167.502960,137.659409 
	C166.491791,137.673767 165.480621,137.688126 164.355042,138.407410 
M144.842346,130.916199 
	C144.453842,130.387665 144.065353,129.859116 143.676849,129.330582 
	C143.343170,129.634171 143.009491,129.937775 142.675812,130.241364 
	C143.278854,130.610977 143.881897,130.980576 144.842346,130.916199 
M160.517105,129.411163 
	C160.517105,129.411163 160.584152,129.523117 160.517105,129.411163 
M156.517380,157.411896 
	C156.517380,157.411896 156.583923,157.523102 156.517380,157.411896 
M158.411377,155.483124 
	C158.411377,155.483124 158.523193,155.416214 158.411377,155.483124 
z"/>
<path fill="#F8F3FA" opacity="1.000000" stroke="none" 
	d="
M161.348450,156.926666 
	C161.002792,155.579132 160.973587,154.088196 161.096756,151.976334 
	C164.733856,150.859787 162.719238,148.641251 162.607712,147.018951 
	C163.770706,147.627502 164.933701,148.236038 166.429260,148.917084 
	C165.062851,151.587479 163.363876,154.185364 161.348450,156.926666 
z"/>
<path fill="#482B8B" opacity="1.000000" stroke="none" 
	d="
M156.994736,167.006836 
	C156.552246,167.005569 156.109741,167.004288 155.335449,167.003326 
	C155.003662,167.003662 155.000000,167.000000 154.998703,166.998260 
	C155.682114,166.422775 156.366837,165.849045 157.051544,165.275299 
	C157.095993,165.681564 157.140442,166.087845 157.092438,166.747055 
	C157.000000,167.000000 156.994736,167.006836 156.994736,167.006836 
z"/>
<path fill="#482B8B" opacity="1.000000" stroke="none" 
	d="
M157.003387,166.997360 
	C157.127365,167.140228 157.247955,167.285751 157.368546,167.431259 
	C157.281113,167.382385 157.193665,167.333511 157.050476,167.145737 
	C156.994736,167.006836 157.000000,167.000000 157.003387,166.997360 
z"/>
<path fill="#452E8B" opacity="1.000000" stroke="none" 
	d="
M118.438431,84.092667 
	C118.225510,81.597855 118.390388,79.036232 118.285629,76.239166 
	C120.069328,68.979897 121.010384,68.425949 127.415703,71.270020 
	C130.352692,72.574089 133.078552,74.353668 136.116333,77.351570 
	C130.349625,79.576332 124.582932,81.801094 118.438431,84.092667 
z"/>
<path fill="#482B89" opacity="1.000000" stroke="none" 
	d="
M114.092133,70.036568 
	C113.404480,73.404427 112.716820,76.772278 111.713478,80.695923 
	C110.271782,81.867355 109.145760,82.483002 108.019737,83.098648 
	C108.019737,83.098640 107.615601,82.913574 107.265282,82.726944 
	C106.676170,82.272614 106.385246,82.191162 106.042191,82.295959 
	C105.517570,81.974983 104.992958,81.654007 104.136551,80.866608 
	C102.867836,80.066742 101.930908,79.733299 100.993988,79.399857 
	C100.651810,78.446480 100.309639,77.493103 99.942078,75.909439 
	C100.941750,74.178886 101.966820,73.078629 102.991890,71.978371 
	C103.163284,71.976089 103.334671,71.973801 104.053345,71.883102 
	C105.037338,71.397888 105.474045,71.001091 105.910751,70.604294 
	C106.797386,70.234871 107.684029,69.865440 109.080841,69.244202 
	C109.983131,68.957619 110.375244,68.922836 111.117722,68.942184 
	C112.342766,69.343063 113.217453,69.689819 114.092133,70.036568 
z"/>
<path fill="#F3EAF8" opacity="1.000000" stroke="none" 
	d="
M102.788910,71.733246 
	C101.966820,73.078629 100.941750,74.178886 99.856995,75.621452 
	C98.083542,72.824921 99.452553,71.606857 102.788910,71.733246 
z"/>
<path fill="#4B377E" opacity="1.000000" stroke="none" 
	d="
M114.381378,69.884796 
	C113.217453,69.689819 112.342766,69.343063 111.262131,68.664513 
	C111.188164,67.939102 111.320145,67.545494 111.452126,67.151878 
	C111.452126,67.151878 111.886169,67.053154 112.108551,67.044830 
	C112.330940,67.036514 112.551834,66.920288 112.667114,66.968018 
	C113.411797,67.921501 114.041199,68.827263 114.381378,69.884796 
z"/>
<path fill="#F3EAF8" opacity="1.000000" stroke="none" 
	d="
M108.267960,83.353065 
	C109.145760,82.483002 110.271782,81.867355 111.684128,81.088631 
	C112.143425,83.525307 111.120651,84.584984 108.267960,83.353065 
z"/>
<path fill="#F3EAF8" opacity="1.000000" stroke="none" 
	d="
M108.840668,96.965591 
	C108.907692,96.204025 108.974716,95.442451 109.344040,94.212776 
	C109.883774,93.533760 110.061661,93.280945 110.180000,92.986214 
	C110.180000,92.986214 110.607780,93.005318 110.807098,93.405510 
	C111.033058,94.588509 111.059700,95.371307 111.086349,96.154114 
	C111.086349,96.154114 111.070343,96.589104 110.654297,96.800568 
	C109.772385,96.996559 109.306526,96.981071 108.840668,96.965591 
z"/>
<path fill="#F3EAF8" opacity="1.000000" stroke="none" 
	d="
M94.369057,77.131516 
	C93.686501,76.472717 93.255745,75.897385 92.824982,75.322052 
	C93.376953,75.113052 93.928925,74.904045 94.480896,74.695045 
	C94.527550,75.535019 94.574203,76.375000 94.369057,77.131516 
z"/>
<path fill="#F3EAF8" opacity="1.000000" stroke="none" 
	d="
M97.043808,74.746979 
	C97.458092,75.532005 97.838051,76.629250 98.218010,77.726494 
	C97.916031,77.807693 97.614052,77.888885 97.312073,77.970085 
	C97.211205,76.999786 97.110336,76.029495 97.043808,74.746979 
z"/>
<path fill="#E3CFF5" opacity="1.000000" stroke="none" 
	d="
M110.026810,92.755539 
	C110.061661,93.280945 109.883774,93.533760 109.434906,93.841255 
	C108.923027,93.475891 108.622574,93.013947 108.352013,92.251465 
	C108.879143,92.142227 109.376373,92.333542 110.026810,92.755539 
z"/>
<path fill="#F3EAF8" opacity="1.000000" stroke="none" 
	d="
M101.073547,79.704987 
	C101.930908,79.733299 102.867836,80.066742 103.871552,80.707977 
	C103.009926,80.680550 102.081512,80.345329 101.073547,79.704987 
z"/>
<path fill="#F3EAF8" opacity="1.000000" stroke="none" 
	d="
M111.090225,67.136307 
	C111.320145,67.545494 111.188164,67.939102 110.911774,68.610390 
	C110.375244,68.922836 109.983131,68.957619 109.295074,68.994812 
	C109.575531,68.371735 110.151924,67.746231 111.090225,67.136307 
z"/>
<path fill="#F3EAF8" opacity="1.000000" stroke="none" 
	d="
M105.706085,70.449417 
	C105.474045,71.001091 105.037338,71.397888 104.299118,71.807617 
	C104.498878,71.311874 105.000145,70.803207 105.706085,70.449417 
z"/>
<path fill="#E3CFF5" opacity="1.000000" stroke="none" 
	d="
M111.350204,95.932999 
	C111.059700,95.371307 111.033058,94.588509 111.020996,93.414932 
	C111.035583,93.024170 111.510582,93.010468 111.748016,93.002304 
	C111.861656,93.900055 111.737862,94.805962 111.350204,95.932999 
z"/>
<path fill="#F3EAF8" opacity="1.000000" stroke="none" 
	d="
M112.575043,91.212662 
	C112.652512,91.552834 112.526985,92.070755 112.184311,92.761307 
	C112.102112,92.419426 112.237076,91.904922 112.575043,91.212662 
z"/>
<path fill="#F3EAF8" opacity="1.000000" stroke="none" 
	d="
M106.236069,62.971252 
	C106.424034,62.687443 106.905563,62.397057 107.682785,62.112381 
	C107.495537,62.400284 107.012589,62.682476 106.236069,62.971252 
z"/>
<path fill="#F3EAF8" opacity="1.000000" stroke="none" 
	d="
M106.933685,89.899467 
	C106.812798,90.023186 106.647896,89.975792 106.267174,89.788246 
	C106.330795,89.674843 106.610237,89.701599 106.933685,89.899467 
z"/>
<path fill="#F3EAF8" opacity="1.000000" stroke="none" 
	d="
M106.187775,82.468468 
	C106.385246,82.191162 106.676170,82.272614 107.043465,82.740791 
	C106.858627,82.935555 106.579094,82.835457 106.187775,82.468468 
z"/>
<path fill="#E3CFF5" opacity="1.000000" stroke="none" 
	d="
M108.580376,97.152481 
	C109.306526,96.981071 109.772385,96.996559 110.587875,97.007828 
	C109.558044,100.668236 108.178589,104.332863 106.417931,107.956970 
	C106.797852,104.390762 107.558968,100.865074 108.580376,97.152481 
z"/>
<path fill="#DFCEFB" opacity="1.000000" stroke="none" 
	d="
M119.783264,122.026047 
	C120.009422,144.009216 120.008270,165.960968 120.019028,188.369781 
	C119.714539,188.715088 119.398148,188.603317 118.969482,188.239685 
	C118.920334,166.309875 118.983467,144.631927 119.072182,122.487160 
	C119.097763,122.020348 119.555969,121.994629 119.783264,122.026047 
z"/>
<path fill="#F8F3FA" opacity="1.000000" stroke="none" 
	d="
M171.364059,139.207367 
	C171.215469,139.019272 171.305893,138.695251 171.588760,138.201782 
	C171.721832,138.378708 171.662460,138.725067 171.364059,139.207367 
z"/>
<path fill="#3A2664" opacity="1.000000" stroke="none" 
	d="
M171.969482,122.033989 
	C172.034897,122.021942 172.125580,121.973900 172.072739,121.991661 
	C171.929230,122.057472 171.994751,121.997986 171.969482,122.033989 
z"/>
<path fill="#4A3480" opacity="1.000000" stroke="none" 
	d="
M93.997040,143.996277 
	C94.656212,144.760651 95.315392,145.525040 95.965935,146.643738 
	C93.011360,147.176773 90.104401,148.545639 87.425446,145.416473 
	C86.208984,143.995560 81.870453,147.983078 80.953148,141.923126 
	C84.355690,142.304459 87.288689,142.633179 90.640686,142.955444 
	C91.914131,143.120331 92.768570,143.291656 93.668510,143.790497 
	C93.808350,144.077438 93.902695,144.036850 93.997040,143.996277 
z"/>
<path fill="#4A299C" opacity="1.000000" stroke="none" 
	d="
M96.983200,138.582184 
	C96.881325,139.279953 96.692383,139.521179 96.211700,139.790771 
	C94.107056,139.113007 92.217171,138.346558 88.985161,137.035828 
	C92.870636,136.174896 95.378784,134.350204 96.983200,138.582184 
z"/>
<path fill="#4A299C" opacity="1.000000" stroke="none" 
	d="
M76.964310,137.687378 
	C76.275642,137.514664 75.550194,137.024063 74.931458,136.291351 
	C75.667953,136.489319 76.297737,136.929398 76.964310,137.687378 
z"/>
<path fill="#4A299C" opacity="1.000000" stroke="none" 
	d="
M87.159882,136.866302 
	C87.242142,137.251556 87.170197,137.485794 87.098251,137.720016 
	C86.832733,137.458679 86.567215,137.197327 86.301697,136.935989 
	C86.536354,136.862411 86.771004,136.788834 87.159882,136.866302 
z"/>
<path fill="#462C87" opacity="1.000000" stroke="none" 
	d="
M79.532578,147.550247 
	C79.476982,147.583466 79.588173,147.517029 79.532578,147.550247 
z"/>
<path fill="#FEFEF5" opacity="1.000000" stroke="none" 
	d="
M144.997849,154.000610 
	C146.219559,154.759079 147.441284,155.517563 148.663681,156.276459 
	C148.269073,159.155548 147.903778,161.820633 147.538498,164.485733 
	C147.172165,164.550430 146.805847,164.615128 146.439514,164.679840 
	C145.757019,162.971664 145.074539,161.263489 144.910767,160.853622 
	C141.389313,159.981506 138.725159,159.076050 135.992493,158.756516 
	C134.766418,158.613129 133.337296,159.519791 132.120651,160.173859 
	C130.891739,160.834534 129.811768,161.772263 128.666534,162.588623 
	C128.137146,160.579590 127.176346,158.548737 127.276199,156.571472 
	C127.320366,155.697083 129.414871,154.565308 130.754791,154.204224 
	C132.634567,153.697632 134.678680,153.800812 137.221436,153.319611 
	C138.839661,152.998199 139.888931,153.000336 141.265335,153.137421 
	C142.727600,153.515121 143.862717,153.757858 144.997849,154.000610 
z"/>
<path fill="#E3D6F3" opacity="1.000000" stroke="none" 
	d="
M145.201385,153.741669 
	C143.862717,153.757858 142.727600,153.515121 141.267075,152.751221 
	C140.955215,151.200562 140.968750,150.171021 141.338959,148.908615 
	C142.302383,144.429901 142.909088,140.184052 143.515808,135.938232 
	C146.139465,136.185837 148.763123,136.433441 151.651764,137.240204 
	C150.593582,141.868729 149.270447,145.938080 147.883575,150.177795 
	C147.819870,150.348145 147.910919,150.700592 147.535080,150.760757 
	C146.301117,151.015442 145.443008,151.209976 144.584885,151.404510 
	C144.619339,151.611465 144.653793,151.818405 144.688248,152.025360 
	C145.784866,151.962616 146.881500,151.899857 148.246521,151.887756 
	C148.683380,152.007492 148.851837,152.076584 149.020294,152.145676 
	C147.815170,152.591354 146.610031,153.037033 145.201385,153.741669 
z"/>
<path fill="#F8F3FA" opacity="1.000000" stroke="none" 
	d="
M140.982269,149.141495 
	C140.968750,150.171021 140.955215,151.200562 140.939941,152.616272 
	C139.888931,153.000336 138.839661,152.998199 137.395721,152.995285 
	C136.264832,152.728790 135.546967,152.373993 134.788208,152.217743 
	C133.579941,151.968933 132.344421,151.852402 131.298660,151.187012 
	C131.658279,150.173096 131.839661,149.652145 132.336624,148.976410 
	C133.263687,144.614471 133.875168,140.407272 134.486633,136.200089 
	C134.860611,133.981949 135.234573,131.763809 135.608521,129.545685 
	C135.993301,129.381287 136.378082,129.216904 136.762863,129.052505 
	C137.704819,131.248718 138.646759,133.444916 139.712524,136.178497 
	C138.970810,138.093933 137.827957,139.372833 137.293030,140.869064 
	C135.826004,144.972443 137.346634,148.153519 140.982269,149.141495 
z"/>
<path fill="#412D74" opacity="1.000000" stroke="none" 
	d="
M134.215393,136.023346 
	C133.875168,140.407272 133.263687,144.614471 132.086975,148.885315 
	C131.352982,148.895218 131.184189,148.841476 131.012695,148.382523 
	C130.845703,141.079529 129.125671,139.330597 123.154526,139.989792 
	C123.014938,138.889908 122.875351,137.790009 122.996689,136.231049 
	C123.585670,135.222305 123.913734,134.672638 124.241798,134.122986 
	C126.756172,134.326019 129.279465,134.458603 131.779526,134.774765 
	C132.534180,134.870224 133.224426,135.475082 134.215393,136.023346 
z"/>
<path fill="#3D2A75" opacity="1.000000" stroke="none" 
	d="
M147.947296,150.007446 
	C149.270447,145.938080 150.593582,141.868729 152.007660,137.418793 
	C152.867142,136.356369 153.635681,135.674530 155.053741,134.956177 
	C156.790146,135.305954 157.877014,135.692230 158.963882,136.078522 
	C159.057999,136.783920 159.152100,137.489334 158.896576,138.581573 
	C157.358139,140.272369 156.169357,141.576309 154.926941,143.207306 
	C154.602173,144.356537 154.331024,145.178711 154.059891,146.000885 
	C154.059891,146.000885 153.822372,146.169846 153.525085,146.447418 
	C152.474030,147.489334 151.720276,148.253647 150.670288,149.144012 
	C149.565140,149.515854 148.756226,149.761642 147.947296,150.007446 
z"/>
<path fill="#47347F" opacity="1.000000" stroke="none" 
	d="
M154.980560,142.880249 
	C156.169357,141.576309 157.358139,140.272369 158.942703,138.934906 
	C159.577744,139.140076 159.817001,139.378754 160.162537,140.116547 
	C160.515106,141.052475 160.761414,141.489334 161.007721,141.926178 
	C161.432709,143.430161 161.857712,144.934143 162.445206,146.728546 
	C162.719238,148.641251 164.733856,150.859787 161.114655,151.647522 
	C156.942184,152.199631 158.431900,148.702530 157.706802,146.179825 
	C156.926010,144.639008 155.953278,143.759628 154.980560,142.880249 
z"/>
<path fill="#48327E" opacity="1.000000" stroke="none" 
	d="
M141.338959,148.908615 
	C137.346634,148.153519 135.826004,144.972443 137.293030,140.869064 
	C137.827957,139.372833 138.970810,138.093933 140.009735,136.396637 
	C140.589340,135.968292 140.995529,135.859177 142.028732,135.534454 
	C142.763382,135.113663 142.871017,134.908493 142.978668,134.703308 
	C143.219849,134.843170 143.461029,134.983032 143.609009,135.530548 
	C142.909088,140.184052 142.302383,144.429901 141.338959,148.908615 
z"/>
<path fill="#492F80" opacity="1.000000" stroke="none" 
	d="
M123.082199,140.240189 
	C129.125671,139.330597 130.845703,141.079529 130.674744,148.369751 
	C129.626526,148.174515 128.913513,147.586838 128.983627,147.644623 
	C126.810829,148.201904 125.305122,148.588089 123.799416,148.974274 
	C123.860100,148.817017 123.920776,148.659760 123.950333,147.985687 
	C123.629417,147.273270 123.339615,147.077713 123.049805,146.882141 
	C123.049805,146.882141 123.001152,146.428009 123.387024,146.157852 
	C123.550728,144.939468 123.328560,143.991241 123.106392,143.043015 
	C123.063271,142.870926 123.020149,142.698837 122.984711,142.013687 
	C122.948860,141.330536 122.905312,141.160446 122.861763,140.990372 
	C122.911133,140.823776 122.960495,140.657181 123.082199,140.240189 
z"/>
<path fill="#FCFEF2" opacity="1.000000" stroke="none" 
	d="
M133.023849,169.990494 
	C133.748947,169.536301 134.111145,169.088470 134.550858,168.991257 
	C136.427353,168.576355 138.326752,168.265060 140.217804,167.915985 
	C139.996445,169.165314 140.108261,171.273895 139.494720,171.511810 
	C137.129715,172.428864 134.532822,172.747879 132.022369,173.289841 
	C132.247116,172.245941 132.471863,171.202057 133.023849,169.990494 
z"/>
<path fill="#E8D8F0" opacity="1.000000" stroke="none" 
	d="
M123.494621,149.015045 
	C125.305122,148.588089 126.810829,148.201904 128.983627,147.644623 
	C128.913513,147.586838 129.626526,148.174515 130.677475,148.774979 
	C131.184189,148.841476 131.352982,148.895218 131.771393,149.040070 
	C131.839661,149.652145 131.658279,150.173096 131.238907,150.844971 
	C127.922699,151.316132 124.844475,151.636353 120.593620,152.078568 
	C122.014977,150.423691 122.602402,149.739746 123.494621,149.015045 
z"/>
<path fill="#F8F3FA" opacity="1.000000" stroke="none" 
	d="
M164.412247,138.054947 
	C165.480621,137.688126 166.491791,137.673767 167.502960,137.659409 
	C167.257278,139.285568 167.011612,140.911743 166.765945,142.537903 
	C166.417847,142.565598 166.069763,142.593277 165.721664,142.620956 
	C165.266129,141.216446 164.810577,139.811935 164.412247,138.054947 
z"/>
<path fill="#F8F3FA" opacity="1.000000" stroke="none" 
	d="
M150.966522,149.017975 
	C151.720276,148.253647 152.474030,147.489334 153.531616,146.593018 
	C153.159088,148.230453 156.106613,151.564209 151.399826,151.073914 
	C151.131805,149.988693 151.049164,149.503326 150.966522,149.017975 
z"/>
<path fill="#F8F3FA" opacity="1.000000" stroke="none" 
	d="
M154.926941,143.207306 
	C155.953278,143.759628 156.926010,144.639008 157.719498,145.819611 
	C156.670029,146.082367 155.799820,146.043884 154.494751,146.003143 
	C154.331024,145.178711 154.602173,144.356537 154.926941,143.207306 
z"/>
<path fill="#F8F3FA" opacity="1.000000" stroke="none" 
	d="
M128.009537,129.990509 
	C129.408371,130.292557 130.807205,130.594604 132.206039,130.896652 
	C132.036713,131.433990 131.867371,131.971344 131.698029,132.508698 
	C130.487213,131.899139 129.276382,131.289566 128.032822,130.339966 
	C128.000092,129.999908 128.009537,129.990509 128.009537,129.990509 
z"/>
<path fill="#F8F3FA" opacity="1.000000" stroke="none" 
	d="
M159.065552,135.795319 
	C157.877014,135.692230 156.790146,135.305954 155.350464,134.848511 
	C156.959930,132.438934 157.898697,132.604385 159.065552,135.795319 
z"/>
<path fill="#F8F3FA" opacity="1.000000" stroke="none" 
	d="
M127.995338,130.004333 
	C127.290543,129.054474 126.590500,128.100204 125.890450,127.145943 
	C126.355812,126.912857 126.821175,126.679779 127.286537,126.446701 
	C127.524429,127.385475 127.762321,128.324249 128.004883,129.626770 
	C128.009537,129.990509 128.000092,129.999908 127.995338,130.004333 
z"/>
<path fill="#3A2664" opacity="1.000000" stroke="none" 
	d="
M150.670288,149.144012 
	C151.049164,149.503326 151.131805,149.988693 151.129456,150.835938 
	C150.558975,151.439819 150.073486,151.681824 149.304138,152.034760 
	C148.851837,152.076584 148.683380,152.007492 148.225845,151.603851 
	C147.928177,151.079742 147.919556,150.890167 147.910919,150.700592 
	C147.910919,150.700592 147.819870,150.348145 147.883575,150.177795 
	C148.756226,149.761642 149.565140,149.515854 150.670288,149.144012 
z"/>
<path fill="#412D74" opacity="1.000000" stroke="none" 
	d="
M123.045898,142.991898 
	C123.328560,143.991241 123.550728,144.939468 123.451096,145.938660 
	C123.071625,145.826599 123.013962,145.663574 122.943787,144.910980 
	C122.896645,143.857681 122.862000,143.393936 122.827347,142.930206 
	C122.827354,142.930206 122.985397,142.940781 123.045898,142.991898 
z"/>
<path fill="#F8F3FA" opacity="1.000000" stroke="none" 
	d="
M144.663635,131.133194 
	C143.881897,130.980576 143.278854,130.610977 142.675812,130.241364 
	C143.009491,129.937775 143.343170,129.634171 143.676849,129.330582 
	C144.065353,129.859116 144.453842,130.387665 144.663635,131.133194 
z"/>
<path fill="#E8D8F0" opacity="1.000000" stroke="none" 
	d="
M123.946136,134.067535 
	C123.913734,134.672638 123.585670,135.222305 122.935074,135.819305 
	C122.958527,135.248459 123.304504,134.630264 123.946136,134.067535 
z"/>
<path fill="#E8D8F0" opacity="1.000000" stroke="none" 
	d="
M122.579620,142.968933 
	C122.862000,143.393936 122.896645,143.857681 122.862396,144.664734 
	C122.639633,144.341248 122.485764,143.674469 122.579620,142.968933 
z"/>
<path fill="#F8F3FA" opacity="1.000000" stroke="none" 
	d="
M142.864014,134.594421 
	C142.871017,134.908493 142.763382,135.113663 142.322083,135.415985 
	C142.242065,135.170578 142.495712,134.828049 142.864014,134.594421 
z"/>
<path fill="#F8F3FA" opacity="1.000000" stroke="none" 
	d="
M160.999298,141.667725 
	C160.761414,141.489334 160.515106,141.052475 160.300446,140.341812 
	C160.551682,140.515091 160.771286,140.962189 160.999298,141.667725 
z"/>
<path fill="#F8F3FA" opacity="1.000000" stroke="none" 
	d="
M160.550629,129.467133 
	C160.584152,129.523117 160.517105,129.411163 160.550629,129.467133 
z"/>
<path fill="#F8F3FA" opacity="1.000000" stroke="none" 
	d="
M156.550659,157.467499 
	C156.583923,157.523102 156.517380,157.411896 156.550659,157.467499 
z"/>
<path fill="#E8D8F0" opacity="1.000000" stroke="none" 
	d="
M122.713791,141.086426 
	C122.905312,141.160446 122.948860,141.330536 122.923126,141.754776 
	C122.705849,141.838058 122.537720,141.679337 122.422775,141.488586 
	C122.390373,141.434814 122.513832,141.287109 122.713791,141.086426 
z"/>
<path fill="#E8D8F0" opacity="1.000000" stroke="none" 
	d="
M123.113121,147.115921 
	C123.339615,147.077713 123.629417,147.273270 123.895798,147.738800 
	C123.575760,147.857315 123.343781,147.637619 123.113121,147.115921 
z"/>
<path fill="#F8F3FA" opacity="1.000000" stroke="none" 
	d="
M158.467285,155.449677 
	C158.523193,155.416214 158.411377,155.483124 158.467285,155.449677 
z"/>
<path fill="#3B296A" opacity="1.000000" stroke="none" 
	d="
M93.998520,143.998138 
	C93.902695,144.036850 93.808350,144.077438 93.858788,144.060379 
	C94.003563,144.002731 94.000000,144.000000 93.998520,143.998138 
z"/>
<path fill="#271158" opacity="1.000000" stroke="none" 
	d="
M147.535080,150.760757 
	C147.919556,150.890167 147.928177,151.079742 147.957458,151.553207 
	C146.881500,151.899857 145.784866,151.962616 144.688248,152.025360 
	C144.653793,151.818405 144.619339,151.611465 144.584885,151.404510 
	C145.443008,151.209976 146.301117,151.015442 147.535080,150.760757 
z"/>
</svg>